<svg width="466" height="49" viewBox="0 0 466 49" fill="none" xmlns="http://www.w3.org/2000/svg">
<path d="M116.032 9.476L115.852 19.304H116.428C116.956 19.304 117.388 19.448 117.724 19.736C118.084 20 118.264 20.336 118.264 20.744C118.264 21.152 118.096 21.488 117.76 21.752C117.424 21.992 116.98 22.112 116.428 22.112H115.852L116.032 33.524C116.032 34.052 115.888 34.496 115.6 34.856C115.312 35.192 114.964 35.36 114.556 35.36C114.148 35.36 113.8 35.192 113.512 34.856C113.224 34.496 113.08 34.052 113.08 33.524L113.26 22.004C109.732 21.932 107.176 21.896 105.592 21.896C104.032 21.896 102.352 21.932 100.552 22.004C100.552 25.892 100.576 28.736 100.624 30.536C100.696 32.336 100.732 33.416 100.732 33.776C100.732 34.136 100.588 34.496 100.3 34.856C100.012 35.192 99.664 35.36 99.256 35.36C98.848 35.36 98.5 35.192 98.212 34.856C97.924 34.496 97.78 34.136 97.78 33.776C97.78 33.416 97.792 32.696 97.816 31.616C97.912 29.144 97.96 25.964 97.96 22.076H97.312C96.16 22.076 95.584 21.632 95.584 20.744C95.584 20.312 95.74 19.976 96.052 19.736C96.364 19.472 96.784 19.34 97.312 19.34H97.96L97.78 9.476C97.78 8.948 97.924 8.516 98.212 8.18C98.5 7.82 98.848 7.64 99.256 7.64C99.664 7.64 100.012 7.82 100.3 8.18C100.588 8.516 100.732 8.948 100.732 9.476L100.552 19.448C102.952 19.496 105.232 19.52 107.392 19.52C109.552 19.52 111.508 19.484 113.26 19.412L113.08 9.476C113.08 8.948 113.224 8.516 113.512 8.18C113.8 7.82 114.148 7.64 114.556 7.64C114.964 7.64 115.312 7.82 115.6 8.18C115.888 8.516 116.032 8.948 116.032 9.476ZM132.296 31.076C133.472 29.66 134.06 27.956 134.06 25.964C134.06 23.972 133.496 22.28 132.368 20.888C131.264 19.496 129.884 18.8 128.228 18.8C126.572 18.8 125.156 19.508 123.98 20.924C122.828 22.34 122.252 24.044 122.252 26.036C122.252 28.028 122.804 29.72 123.908 31.112C125.036 32.504 126.428 33.2 128.084 33.2C129.74 33.2 131.144 32.492 132.296 31.076ZM128.156 16.46C130.628 16.46 132.656 17.384 134.24 19.232C135.824 21.056 136.616 23.3 136.616 25.964C136.616 28.628 135.812 30.896 134.204 32.768C132.596 34.616 130.568 35.54 128.12 35.54C125.672 35.54 123.656 34.628 122.072 32.804C120.488 30.956 119.696 28.7 119.696 26.036C119.696 23.372 120.488 21.116 122.072 19.268C123.68 17.396 125.708 16.46 128.156 16.46ZM146.823 33.02C148.359 33.02 149.703 32.312 150.855 30.896C152.031 29.48 152.619 27.824 152.619 25.928C152.619 24.008 152.199 22.376 151.359 21.032C150.519 19.664 149.379 18.98 147.939 18.98C145.419 18.98 143.343 21.056 141.711 25.208V30.932C143.151 32.324 144.855 33.02 146.823 33.02ZM139.479 28.16L139.515 26.792V26.216C139.515 25.208 139.407 23.732 139.191 21.788C138.975 19.844 138.867 18.668 138.867 18.26C138.867 17.828 138.987 17.456 139.227 17.144C139.491 16.808 139.839 16.64 140.271 16.64C140.703 16.64 141.039 16.808 141.279 17.144C141.543 17.456 141.675 17.816 141.675 18.224C141.675 18.632 141.663 19.148 141.639 19.772C141.639 20.372 141.639 20.876 141.639 21.284C142.431 19.82 143.319 18.68 144.303 17.864C145.287 17.048 146.559 16.64 148.119 16.64C149.679 16.64 151.023 17.144 152.151 18.152C153.279 19.16 154.083 20.324 154.563 21.644C155.043 22.964 155.283 24.284 155.283 25.604C155.283 28.22 154.491 30.5 152.907 32.444C151.323 34.388 149.295 35.36 146.823 35.36C145.023 35.36 143.319 34.772 141.711 33.596C141.663 36.5 141.639 38.648 141.639 40.04C141.639 41.456 141.519 42.344 141.279 42.704C141.039 43.088 140.667 43.28 140.163 43.28C139.659 43.28 139.239 43.064 138.903 42.632C138.591 42.224 138.435 41.624 138.435 40.832C138.435 40.04 138.483 39.092 138.579 37.988C138.675 36.908 138.819 35.48 139.011 33.704C139.203 31.904 139.359 30.284 139.479 28.844V28.16ZM164.906 25.316C166.538 25.316 167.834 25.04 168.794 24.488C169.778 23.936 170.27 23.192 170.27 22.256C170.27 21.32 169.946 20.516 169.298 19.844C168.674 19.148 167.774 18.8 166.598 18.8C165.014 18.8 163.682 19.4 162.602 20.6C161.522 21.776 160.826 23.156 160.514 24.74C161.834 25.124 163.298 25.316 164.906 25.316ZM166.274 16.46C168.218 16.46 169.79 17 170.99 18.08C172.214 19.16 172.826 20.564 172.826 22.292C172.826 24.02 172.07 25.34 170.558 26.252C169.07 27.14 167.234 27.584 165.05 27.584C163.802 27.584 162.278 27.404 160.478 27.044C160.622 28.724 161.246 30.176 162.35 31.4C163.478 32.6 164.726 33.2 166.094 33.2C166.91 33.2 167.666 33.092 168.362 32.876C169.058 32.636 169.586 32.384 169.946 32.12C170.906 31.376 171.53 31.004 171.818 31.004C172.13 31.004 172.37 31.1 172.538 31.292C172.73 31.46 172.826 31.676 172.826 31.94C172.826 32.612 172.13 33.38 170.738 34.244C169.37 35.108 167.882 35.54 166.274 35.54C163.778 35.54 161.798 34.664 160.334 32.912C158.87 31.16 158.078 29.048 157.958 26.576C156.686 26.192 156.05 25.568 156.05 24.704C156.05 24.344 156.146 24.068 156.338 23.876C156.554 23.66 156.806 23.552 157.094 23.552C157.382 23.552 157.742 23.66 158.174 23.876C158.702 21.716 159.698 19.94 161.162 18.548C162.65 17.156 164.354 16.46 166.274 16.46ZM201.89 31.58C201.89 32.348 201.026 33.2 199.298 34.136C197.594 35.072 195.59 35.54 193.286 35.54C189.926 35.54 187.142 34.184 184.934 31.472C182.726 28.736 181.622 25.412 181.622 21.5C181.622 17.564 182.738 14.24 184.97 11.528C187.202 8.816 189.998 7.46 193.358 7.46C195.35 7.46 197.138 7.832 198.722 8.576C200.306 9.32 201.098 10.16 201.098 11.096C201.098 11.48 200.978 11.78 200.738 11.996C200.522 12.212 200.21 12.32 199.802 12.32C199.418 12.32 198.95 12.128 198.398 11.744C197.87 11.36 197.186 10.976 196.346 10.592C195.53 10.184 194.534 9.98 193.358 9.98C190.79 9.98 188.678 11.12 187.022 13.4C185.366 15.656 184.538 18.332 184.538 21.428C184.538 24.5 185.366 27.2 187.022 29.528C188.678 31.856 190.778 33.02 193.322 33.02C194.498 33.02 195.554 32.9 196.49 32.66C197.45 32.396 198.17 32.12 198.65 31.832C199.13 31.544 199.574 31.28 199.982 31.04C200.39 30.776 200.702 30.644 200.918 30.644C201.566 30.644 201.89 30.956 201.89 31.58ZM215.37 31.076C216.546 29.66 217.134 27.956 217.134 25.964C217.134 23.972 216.57 22.28 215.442 20.888C214.338 19.496 212.958 18.8 211.302 18.8C209.646 18.8 208.23 19.508 207.054 20.924C205.902 22.34 205.326 24.044 205.326 26.036C205.326 28.028 205.878 29.72 206.982 31.112C208.11 32.504 209.502 33.2 211.158 33.2C212.814 33.2 214.218 32.492 215.37 31.076ZM211.23 16.46C213.702 16.46 215.73 17.384 217.314 19.232C218.898 21.056 219.69 23.3 219.69 25.964C219.69 28.628 218.886 30.896 217.278 32.768C215.67 34.616 213.642 35.54 211.194 35.54C208.746 35.54 206.73 34.628 205.146 32.804C203.562 30.956 202.77 28.7 202.77 26.036C202.77 23.372 203.562 21.116 205.146 19.268C206.754 17.396 208.782 16.46 211.23 16.46ZM248.113 23.66L247.933 29.312C247.933 29.984 247.933 30.5 247.933 30.86C247.957 31.196 248.029 31.556 248.149 31.94C248.293 32.3 248.461 32.528 248.653 32.624C248.845 32.696 249.037 32.744 249.229 32.768C249.445 32.792 249.589 32.828 249.661 32.876C249.757 32.924 249.805 33.02 249.805 33.164C249.805 33.788 249.601 34.316 249.193 34.748C248.809 35.156 248.353 35.36 247.825 35.36C246.913 35.36 246.277 35 245.917 34.28C245.581 33.56 245.413 32.504 245.413 31.112L245.557 24.488C245.557 22.856 245.233 21.536 244.585 20.528C243.961 19.52 243.073 19.016 241.921 19.016C240.793 19.016 239.689 19.7 238.609 21.068C237.529 22.436 236.773 23.984 236.341 25.712L236.449 33.524C236.449 34.748 235.993 35.36 235.081 35.36C233.977 35.36 233.425 34.52 233.425 32.84C233.425 31.136 233.665 28.76 234.145 25.712C234.145 21.248 232.921 19.016 230.473 19.016C229.345 19.016 228.241 19.7 227.161 21.068C226.081 22.436 225.325 23.984 224.893 25.712L225.001 33.524C225.001 34.748 224.545 35.36 223.633 35.36C222.529 35.36 221.977 34.52 221.977 32.84C221.977 31.136 222.217 28.76 222.697 25.712C222.697 24.704 222.589 23.312 222.373 21.536C222.181 19.76 222.085 18.668 222.085 18.26C222.085 17.828 222.205 17.456 222.445 17.144C222.709 16.808 223.057 16.64 223.489 16.64C223.921 16.64 224.257 16.808 224.497 17.144C224.761 17.456 224.893 17.816 224.893 18.224C224.893 18.632 224.881 19.136 224.857 19.736C224.857 20.312 224.857 20.804 224.857 21.212C226.489 18.164 228.529 16.64 230.977 16.64C232.393 16.64 233.545 17.06 234.433 17.9C235.345 18.716 235.969 19.82 236.305 21.212C237.937 18.164 239.977 16.64 242.425 16.64C244.225 16.64 245.617 17.324 246.601 18.692C247.609 20.06 248.113 21.716 248.113 23.66ZM259.667 33.02C261.203 33.02 262.547 32.312 263.699 30.896C264.875 29.48 265.463 27.824 265.463 25.928C265.463 24.008 265.043 22.376 264.203 21.032C263.363 19.664 262.223 18.98 260.783 18.98C258.263 18.98 256.187 21.056 254.555 25.208V30.932C255.995 32.324 257.699 33.02 259.667 33.02ZM252.323 28.16L252.359 26.792V26.216C252.359 25.208 252.251 23.732 252.035 21.788C251.819 19.844 251.711 18.668 251.711 18.26C251.711 17.828 251.831 17.456 252.071 17.144C252.335 16.808 252.683 16.64 253.115 16.64C253.547 16.64 253.883 16.808 254.123 17.144C254.387 17.456 254.519 17.816 254.519 18.224C254.519 18.632 254.507 19.148 254.483 19.772C254.483 20.372 254.483 20.876 254.483 21.284C255.275 19.82 256.163 18.68 257.147 17.864C258.131 17.048 259.403 16.64 260.963 16.64C262.523 16.64 263.867 17.144 264.995 18.152C266.123 19.16 266.927 20.324 267.407 21.644C267.887 22.964 268.127 24.284 268.127 25.604C268.127 28.22 267.335 30.5 265.751 32.444C264.167 34.388 262.139 35.36 259.667 35.36C257.867 35.36 256.163 34.772 254.555 33.596C254.507 36.5 254.483 38.648 254.483 40.04C254.483 41.456 254.363 42.344 254.123 42.704C253.883 43.088 253.511 43.28 253.007 43.28C252.503 43.28 252.083 43.064 251.747 42.632C251.435 42.224 251.279 41.624 251.279 40.832C251.279 40.04 251.327 39.092 251.423 37.988C251.519 36.908 251.663 35.48 251.855 33.704C252.047 31.904 252.203 30.284 252.323 28.844V28.16ZM284.842 26.288C284.842 28.088 284.974 29.564 285.238 30.716C285.502 31.844 285.814 32.48 286.174 32.624C286.318 32.696 286.486 32.744 286.678 32.768C286.894 32.792 287.038 32.828 287.11 32.876C287.206 32.924 287.254 33.02 287.254 33.164C287.254 33.812 287.074 34.34 286.714 34.748C286.378 35.156 285.862 35.36 285.166 35.36C284.47 35.36 283.93 34.916 283.546 34.028C283.162 33.14 282.97 32 282.97 30.608C282.37 31.952 281.482 33.08 280.306 33.992C279.154 34.904 277.846 35.36 276.382 35.36C274.942 35.36 273.694 34.88 272.638 33.92C270.718 32.168 269.758 29.66 269.758 26.396C269.758 23.78 270.514 21.5 272.026 19.556C273.538 17.612 275.482 16.64 277.858 16.64C279.658 16.64 281.218 17.252 282.538 18.476C282.538 17.252 282.994 16.64 283.906 16.64C285.01 16.64 285.562 17.492 285.562 19.196C285.562 20.876 285.322 23.24 284.842 26.288ZM282.754 26.612L282.574 21.068C281.134 19.676 279.622 18.98 278.038 18.98C276.478 18.98 275.134 19.688 274.006 21.104C272.878 22.52 272.314 24.224 272.314 26.216C272.314 28.184 272.674 29.816 273.394 31.112C274.138 32.384 275.182 33.02 276.526 33.02C277.87 33.02 279.094 32.42 280.198 31.22C281.302 30.02 282.154 28.484 282.754 26.612ZM301.773 29.816C301.773 31.448 301.101 32.78 299.757 33.812C298.437 34.844 296.841 35.36 294.969 35.36C293.121 35.36 291.513 34.94 290.145 34.1C288.777 33.236 288.093 32.384 288.093 31.544C288.093 31.184 288.201 30.896 288.417 30.68C288.633 30.44 288.873 30.32 289.137 30.32C289.425 30.32 289.653 30.38 289.821 30.5C289.989 30.596 290.217 30.8 290.505 31.112C290.793 31.424 291.045 31.688 291.261 31.904C291.501 32.12 291.969 32.36 292.665 32.624C293.385 32.888 294.045 33.02 294.645 33.02C295.965 33.02 297.045 32.756 297.885 32.228C298.749 31.676 299.181 30.884 299.181 29.852C299.181 28.604 297.981 27.56 295.581 26.72C294.597 26.384 293.601 26.024 292.593 25.64C291.609 25.232 290.769 24.68 290.073 23.984C289.377 23.288 289.029 22.46 289.029 21.5C289.029 20.204 289.617 19.076 290.793 18.116C291.969 17.132 293.409 16.64 295.113 16.64C296.817 16.64 298.161 16.94 299.145 17.54C300.153 18.116 300.657 18.728 300.657 19.376C300.657 20.168 300.237 20.564 299.397 20.564C299.037 20.564 298.677 20.432 298.317 20.168C297.189 19.376 296.109 18.98 295.077 18.98C294.045 18.98 293.205 19.22 292.557 19.7C291.909 20.156 291.585 20.696 291.585 21.32C291.585 21.92 291.933 22.436 292.629 22.868C293.325 23.3 294.165 23.696 295.149 24.056C296.157 24.416 297.165 24.824 298.173 25.28C299.181 25.712 300.033 26.324 300.729 27.116C301.425 27.884 301.773 28.784 301.773 29.816ZM316.356 29.816C316.356 31.448 315.684 32.78 314.34 33.812C313.02 34.844 311.424 35.36 309.552 35.36C307.704 35.36 306.096 34.94 304.728 34.1C303.36 33.236 302.676 32.384 302.676 31.544C302.676 31.184 302.784 30.896 303 30.68C303.216 30.44 303.456 30.32 303.72 30.32C304.008 30.32 304.236 30.38 304.404 30.5C304.572 30.596 304.8 30.8 305.088 31.112C305.376 31.424 305.628 31.688 305.844 31.904C306.084 32.12 306.552 32.36 307.248 32.624C307.968 32.888 308.628 33.02 309.228 33.02C310.548 33.02 311.628 32.756 312.468 32.228C313.332 31.676 313.764 30.884 313.764 29.852C313.764 28.604 312.564 27.56 310.164 26.72C309.18 26.384 308.184 26.024 307.176 25.64C306.192 25.232 305.352 24.68 304.656 23.984C303.96 23.288 303.612 22.46 303.612 21.5C303.612 20.204 304.2 19.076 305.376 18.116C306.552 17.132 307.992 16.64 309.696 16.64C311.4 16.64 312.744 16.94 313.728 17.54C314.736 18.116 315.24 18.728 315.24 19.376C315.24 20.168 314.82 20.564 313.98 20.564C313.62 20.564 313.26 20.432 312.9 20.168C311.772 19.376 310.692 18.98 309.66 18.98C308.628 18.98 307.788 19.22 307.14 19.7C306.492 20.156 306.168 20.696 306.168 21.32C306.168 21.92 306.516 22.436 307.212 22.868C307.908 23.3 308.748 23.696 309.732 24.056C310.74 24.416 311.748 24.824 312.756 25.28C313.764 25.712 314.616 26.324 315.312 27.116C316.008 27.884 316.356 28.784 316.356 29.816ZM320.174 8.9C320.678 8.9 321.05 9.068 321.29 9.404C321.53 9.716 321.65 10.124 321.65 10.628C321.65 11.108 321.482 11.6 321.146 12.104C320.81 12.584 320.39 12.824 319.886 12.824C319.382 12.824 318.998 12.656 318.734 12.32C318.494 11.984 318.374 11.54 318.374 10.988C318.374 10.436 318.542 9.956 318.878 9.548C319.238 9.116 319.67 8.9 320.174 8.9ZM321.182 26L321.362 33.56C321.362 34.76 320.906 35.36 319.994 35.36C319.082 35.36 318.626 34.76 318.626 33.56L318.806 26L318.626 18.44C318.626 17.24 319.082 16.64 319.994 16.64C320.906 16.64 321.362 17.24 321.362 18.44L321.182 26ZM336.469 31.076C337.645 29.66 338.233 27.956 338.233 25.964C338.233 23.972 337.669 22.28 336.541 20.888C335.437 19.496 334.057 18.8 332.401 18.8C330.745 18.8 329.329 19.508 328.153 20.924C327.001 22.34 326.425 24.044 326.425 26.036C326.425 28.028 326.977 29.72 328.081 31.112C329.209 32.504 330.601 33.2 332.257 33.2C333.913 33.2 335.317 32.492 336.469 31.076ZM332.329 16.46C334.801 16.46 336.829 17.384 338.413 19.232C339.997 21.056 340.789 23.3 340.789 25.964C340.789 28.628 339.985 30.896 338.377 32.768C336.769 34.616 334.741 35.54 332.293 35.54C329.845 35.54 327.829 34.628 326.245 32.804C324.661 30.956 323.869 28.7 323.869 26.036C323.869 23.372 324.661 21.116 326.245 19.268C327.853 17.396 329.881 16.46 332.329 16.46ZM358.484 23.66L358.304 29.312C358.304 29.984 358.304 30.5 358.304 30.86C358.328 31.196 358.4 31.556 358.52 31.94C358.664 32.3 358.832 32.528 359.024 32.624C359.216 32.696 359.408 32.744 359.6 32.768C359.816 32.792 359.96 32.828 360.032 32.876C360.128 32.924 360.176 33.02 360.176 33.164C360.176 33.788 359.972 34.316 359.564 34.748C359.18 35.156 358.724 35.36 358.196 35.36C357.284 35.36 356.648 35 356.288 34.28C355.952 33.56 355.784 32.504 355.784 31.112L355.928 24.488C355.928 22.856 355.58 21.536 354.884 20.528C354.188 19.52 353.216 19.016 351.968 19.016C350.744 19.016 349.556 19.7 348.404 21.068C347.252 22.436 346.448 23.984 345.992 25.712L346.1 33.524C346.1 34.748 345.644 35.36 344.732 35.36C343.628 35.36 343.076 34.52 343.076 32.84C343.076 31.136 343.316 28.76 343.796 25.712C343.796 24.704 343.688 23.312 343.472 21.536C343.28 19.76 343.184 18.668 343.184 18.26C343.184 17.828 343.304 17.456 343.544 17.144C343.808 16.808 344.156 16.64 344.588 16.64C345.02 16.64 345.356 16.808 345.596 17.144C345.86 17.456 345.992 17.816 345.992 18.224C345.992 18.632 345.98 19.136 345.956 19.736C345.956 20.312 345.956 20.804 345.956 21.212C347.708 18.164 349.868 16.64 352.436 16.64C354.356 16.64 355.844 17.324 356.9 18.692C357.956 20.06 358.484 21.716 358.484 23.66ZM388.774 31.58C388.774 32.348 387.91 33.2 386.182 34.136C384.478 35.072 382.474 35.54 380.17 35.54C376.81 35.54 374.026 34.184 371.818 31.472C369.61 28.736 368.506 25.412 368.506 21.5C368.506 17.564 369.622 14.24 371.854 11.528C374.086 8.816 376.882 7.46 380.242 7.46C382.234 7.46 384.022 7.832 385.606 8.576C387.19 9.32 387.982 10.16 387.982 11.096C387.982 11.48 387.862 11.78 387.622 11.996C387.406 12.212 387.094 12.32 386.686 12.32C386.302 12.32 385.834 12.128 385.282 11.744C384.754 11.36 384.07 10.976 383.23 10.592C382.414 10.184 381.418 9.98 380.242 9.98C377.674 9.98 375.562 11.12 373.906 13.4C372.25 15.656 371.422 18.332 371.422 21.428C371.422 24.5 372.25 27.2 373.906 29.528C375.562 31.856 377.662 33.02 380.206 33.02C381.382 33.02 382.438 32.9 383.374 32.66C384.334 32.396 385.054 32.12 385.534 31.832C386.014 31.544 386.458 31.28 386.866 31.04C387.274 30.776 387.586 30.644 387.802 30.644C388.45 30.644 388.774 30.956 388.774 31.58ZM397.12 25.316C398.752 25.316 400.048 25.04 401.008 24.488C401.992 23.936 402.484 23.192 402.484 22.256C402.484 21.32 402.16 20.516 401.512 19.844C400.888 19.148 399.988 18.8 398.812 18.8C397.228 18.8 395.896 19.4 394.816 20.6C393.736 21.776 393.04 23.156 392.728 24.74C394.048 25.124 395.512 25.316 397.12 25.316ZM398.488 16.46C400.432 16.46 402.004 17 403.204 18.08C404.428 19.16 405.04 20.564 405.04 22.292C405.04 24.02 404.284 25.34 402.772 26.252C401.284 27.14 399.448 27.584 397.264 27.584C396.016 27.584 394.492 27.404 392.692 27.044C392.836 28.724 393.46 30.176 394.564 31.4C395.692 32.6 396.94 33.2 398.308 33.2C399.124 33.2 399.88 33.092 400.576 32.876C401.272 32.636 401.8 32.384 402.16 32.12C403.12 31.376 403.744 31.004 404.032 31.004C404.344 31.004 404.584 31.1 404.752 31.292C404.944 31.46 405.04 31.676 405.04 31.94C405.04 32.612 404.344 33.38 402.952 34.244C401.584 35.108 400.096 35.54 398.488 35.54C395.992 35.54 394.012 34.664 392.548 32.912C391.084 31.16 390.292 29.048 390.172 26.576C388.9 26.192 388.264 25.568 388.264 24.704C388.264 24.344 388.36 24.068 388.552 23.876C388.768 23.66 389.02 23.552 389.308 23.552C389.596 23.552 389.956 23.66 390.388 23.876C390.916 21.716 391.912 19.94 393.376 18.548C394.864 17.156 396.568 16.46 398.488 16.46ZM422.862 23.66L422.682 29.312C422.682 29.984 422.682 30.5 422.682 30.86C422.706 31.196 422.778 31.556 422.898 31.94C423.042 32.3 423.21 32.528 423.402 32.624C423.594 32.696 423.786 32.744 423.978 32.768C424.194 32.792 424.338 32.828 424.41 32.876C424.506 32.924 424.554 33.02 424.554 33.164C424.554 33.788 424.35 34.316 423.942 34.748C423.558 35.156 423.102 35.36 422.574 35.36C421.662 35.36 421.026 35 420.666 34.28C420.33 33.56 420.162 32.504 420.162 31.112L420.306 24.488C420.306 22.856 419.958 21.536 419.262 20.528C418.566 19.52 417.594 19.016 416.346 19.016C415.122 19.016 413.934 19.7 412.782 21.068C411.63 22.436 410.826 23.984 410.37 25.712L410.478 33.524C410.478 34.748 410.022 35.36 409.11 35.36C408.006 35.36 407.454 34.52 407.454 32.84C407.454 31.136 407.694 28.76 408.174 25.712C408.174 24.704 408.066 23.312 407.85 21.536C407.658 19.76 407.562 18.668 407.562 18.26C407.562 17.828 407.682 17.456 407.922 17.144C408.186 16.808 408.534 16.64 408.966 16.64C409.398 16.64 409.734 16.808 409.974 17.144C410.238 17.456 410.37 17.816 410.37 18.224C410.37 18.632 410.358 19.136 410.334 19.736C410.334 20.312 410.334 20.804 410.334 21.212C412.086 18.164 414.246 16.64 416.814 16.64C418.734 16.64 420.222 17.324 421.278 18.692C422.334 20.06 422.862 21.716 422.862 23.66ZM430.325 19.196L430.253 27.728C430.253 29.912 430.337 31.34 430.505 32.012C430.697 32.684 431.177 33.02 431.945 33.02C432.305 33.02 432.737 32.9 433.241 32.66C433.769 32.396 434.117 32.264 434.285 32.264C434.789 32.264 435.041 32.516 435.041 33.02C435.041 33.5 434.597 34.016 433.709 34.568C432.821 35.096 431.945 35.36 431.081 35.36C428.993 35.36 427.949 33.824 427.949 30.752L427.913 19.196C427.121 19.268 426.569 19.304 426.257 19.304C425.057 19.304 424.457 18.908 424.457 18.116C424.457 17.324 425.057 16.928 426.257 16.928C426.353 16.928 426.881 16.952 427.841 17L427.769 12.968C427.769 11.768 428.225 11.168 429.137 11.168C430.049 11.168 430.505 11.768 430.505 12.968L430.397 17.036L433.313 16.892C434.513 16.892 435.113 17.3 435.113 18.116C435.113 18.884 434.513 19.268 433.313 19.268C433.097 19.268 432.101 19.244 430.325 19.196ZM443.4 25.316C445.032 25.316 446.328 25.04 447.288 24.488C448.272 23.936 448.764 23.192 448.764 22.256C448.764 21.32 448.44 20.516 447.792 19.844C447.168 19.148 446.268 18.8 445.092 18.8C443.508 18.8 442.176 19.4 441.096 20.6C440.016 21.776 439.32 23.156 439.008 24.74C440.328 25.124 441.792 25.316 443.4 25.316ZM444.768 16.46C446.712 16.46 448.284 17 449.484 18.08C450.708 19.16 451.32 20.564 451.32 22.292C451.32 24.02 450.564 25.34 449.052 26.252C447.564 27.14 445.728 27.584 443.544 27.584C442.296 27.584 440.772 27.404 438.972 27.044C439.116 28.724 439.74 30.176 440.844 31.4C441.972 32.6 443.22 33.2 444.588 33.2C445.404 33.2 446.16 33.092 446.856 32.876C447.552 32.636 448.08 32.384 448.44 32.12C449.4 31.376 450.024 31.004 450.312 31.004C450.624 31.004 450.864 31.1 451.032 31.292C451.224 31.46 451.32 31.676 451.32 31.94C451.32 32.612 450.624 33.38 449.232 34.244C447.864 35.108 446.376 35.54 444.768 35.54C442.272 35.54 440.292 34.664 438.828 32.912C437.364 31.16 436.572 29.048 436.452 26.576C435.18 26.192 434.544 25.568 434.544 24.704C434.544 24.344 434.64 24.068 434.832 23.876C435.048 23.66 435.3 23.552 435.588 23.552C435.876 23.552 436.236 23.66 436.668 23.876C437.196 21.716 438.192 19.94 439.656 18.548C441.144 17.156 442.848 16.46 444.768 16.46ZM456.65 26.756L456.758 33.524C456.758 34.748 456.302 35.36 455.39 35.36C454.286 35.36 453.734 34.52 453.734 32.84C453.734 31.136 453.974 28.76 454.454 25.712C454.454 24.704 454.346 23.324 454.13 21.572C453.938 19.82 453.842 18.728 453.842 18.296C453.842 17.864 453.962 17.48 454.202 17.144C454.466 16.808 454.814 16.64 455.246 16.64C455.678 16.64 456.014 16.808 456.254 17.144C456.518 17.48 456.65 17.852 456.65 18.26C456.65 18.644 456.638 19.148 456.614 19.772C456.614 20.372 456.614 20.876 456.614 21.284C457.094 20.06 457.838 18.98 458.846 18.044C459.878 17.108 460.934 16.64 462.014 16.64C463.094 16.64 463.922 16.868 464.498 17.324C465.098 17.756 465.398 18.224 465.398 18.728C465.398 19.232 465.266 19.628 465.002 19.916C464.738 20.204 464.39 20.348 463.958 20.348C463.55 20.348 463.094 20.132 462.59 19.7C462.11 19.244 461.726 19.016 461.438 19.016C460.646 19.016 459.722 19.868 458.666 21.572C457.61 23.276 456.938 25.004 456.65 26.756Z" fill="#251600"/>
<g clip-path="url(#clip0_7_103)">
<path d="M44.5057 22.475L33.5003 11.4753L22.4943 22.475C16.5044 28.4572 16.4228 38.1008 22.239 44.1877L22.4986 44.4469C25.5365 47.4809 29.5181 48.9988 33.5003 48.9994C37.4813 48.9982 41.4635 47.4809 44.5014 44.4469L44.761 44.1877C50.5778 38.1008 50.4956 28.4572 44.5057 22.475Z" fill="#FF6803"/>
<path d="M16.9719 38.9313C16.3755 37.129 16.0724 35.2226 16.0933 33.2721C16.1424 28.7012 17.9518 24.4042 21.1885 21.1717L32.1945 10.1726L32.1952 10.172L26.5673 4.55202C20.4909 -1.51714 10.6366 -1.51591 4.55896 4.55202C-1.51745 10.6224 -1.5199 20.4627 4.55896 26.5319L4.55405 26.5374L16.9719 38.9313Z" fill="#252323"/>
<path d="M62.4416 4.55126C56.364 -1.51668 46.5097 -1.5179 40.4339 4.55126L34.8054 10.1706L34.8066 10.1718L45.8114 21.171C49.0481 24.4035 50.8582 28.701 50.9073 33.2719C50.9288 35.2218 50.6257 37.1283 50.0293 38.9305L62.4471 26.5373L62.4422 26.5317C68.5205 20.4626 68.5186 10.6216 62.4416 4.55126Z" fill="#252323"/>
</g>
<defs>
<clipPath id="clip0_7_103">
<rect width="67" height="49" fill="white"/>
</clipPath>
</defs>
</svg>
