<svg width="466" height="91" viewBox="0 0 466 91" fill="none" xmlns="http://www.w3.org/2000/svg">
<path d="M116.032 9.476L115.852 19.304H116.428C116.956 19.304 117.388 19.448 117.724 19.736C118.084 20 118.264 20.336 118.264 20.744C118.264 21.152 118.096 21.488 117.76 21.752C117.424 21.992 116.98 22.112 116.428 22.112H115.852L116.032 33.524C116.032 34.052 115.888 34.496 115.6 34.856C115.312 35.192 114.964 35.36 114.556 35.36C114.148 35.36 113.8 35.192 113.512 34.856C113.224 34.496 113.08 34.052 113.08 33.524L113.26 22.004C109.732 21.932 107.176 21.896 105.592 21.896C104.032 21.896 102.352 21.932 100.552 22.004C100.552 25.892 100.576 28.736 100.624 30.536C100.696 32.336 100.732 33.416 100.732 33.776C100.732 34.136 100.588 34.496 100.3 34.856C100.012 35.192 99.664 35.36 99.256 35.36C98.848 35.36 98.5 35.192 98.212 34.856C97.924 34.496 97.78 34.136 97.78 33.776C97.78 33.416 97.792 32.696 97.816 31.616C97.912 29.144 97.96 25.964 97.96 22.076H97.312C96.16 22.076 95.584 21.632 95.584 20.744C95.584 20.312 95.74 19.976 96.052 19.736C96.364 19.472 96.784 19.34 97.312 19.34H97.96L97.78 9.476C97.78 8.948 97.924 8.516 98.212 8.18C98.5 7.82 98.848 7.64 99.256 7.64C99.664 7.64 100.012 7.82 100.3 8.18C100.588 8.516 100.732 8.948 100.732 9.476L100.552 19.448C102.952 19.496 105.232 19.52 107.392 19.52C109.552 19.52 111.508 19.484 113.26 19.412L113.08 9.476C113.08 8.948 113.224 8.516 113.512 8.18C113.8 7.82 114.148 7.64 114.556 7.64C114.964 7.64 115.312 7.82 115.6 8.18C115.888 8.516 116.032 8.948 116.032 9.476ZM132.296 31.076C133.472 29.66 134.06 27.956 134.06 25.964C134.06 23.972 133.496 22.28 132.368 20.888C131.264 19.496 129.884 18.8 128.228 18.8C126.572 18.8 125.156 19.508 123.98 20.924C122.828 22.34 122.252 24.044 122.252 26.036C122.252 28.028 122.804 29.72 123.908 31.112C125.036 32.504 126.428 33.2 128.084 33.2C129.74 33.2 131.144 32.492 132.296 31.076ZM128.156 16.46C130.628 16.46 132.656 17.384 134.24 19.232C135.824 21.056 136.616 23.3 136.616 25.964C136.616 28.628 135.812 30.896 134.204 32.768C132.596 34.616 130.568 35.54 128.12 35.54C125.672 35.54 123.656 34.628 122.072 32.804C120.488 30.956 119.696 28.7 119.696 26.036C119.696 23.372 120.488 21.116 122.072 19.268C123.68 17.396 125.708 16.46 128.156 16.46ZM146.823 33.02C148.359 33.02 149.703 32.312 150.855 30.896C152.031 29.48 152.619 27.824 152.619 25.928C152.619 24.008 152.199 22.376 151.359 21.032C150.519 19.664 149.379 18.98 147.939 18.98C145.419 18.98 143.343 21.056 141.711 25.208V30.932C143.151 32.324 144.855 33.02 146.823 33.02ZM139.479 28.16L139.515 26.792V26.216C139.515 25.208 139.407 23.732 139.191 21.788C138.975 19.844 138.867 18.668 138.867 18.26C138.867 17.828 138.987 17.456 139.227 17.144C139.491 16.808 139.839 16.64 140.271 16.64C140.703 16.64 141.039 16.808 141.279 17.144C141.543 17.456 141.675 17.816 141.675 18.224C141.675 18.632 141.663 19.148 141.639 19.772C141.639 20.372 141.639 20.876 141.639 21.284C142.431 19.82 143.319 18.68 144.303 17.864C145.287 17.048 146.559 16.64 148.119 16.64C149.679 16.64 151.023 17.144 152.151 18.152C153.279 19.16 154.083 20.324 154.563 21.644C155.043 22.964 155.283 24.284 155.283 25.604C155.283 28.22 154.491 30.5 152.907 32.444C151.323 34.388 149.295 35.36 146.823 35.36C145.023 35.36 143.319 34.772 141.711 33.596C141.663 36.5 141.639 38.648 141.639 40.04C141.639 41.456 141.519 42.344 141.279 42.704C141.039 43.088 140.667 43.28 140.163 43.28C139.659 43.28 139.239 43.064 138.903 42.632C138.591 42.224 138.435 41.624 138.435 40.832C138.435 40.04 138.483 39.092 138.579 37.988C138.675 36.908 138.819 35.48 139.011 33.704C139.203 31.904 139.359 30.284 139.479 28.844V28.16ZM164.906 25.316C166.538 25.316 167.834 25.04 168.794 24.488C169.778 23.936 170.27 23.192 170.27 22.256C170.27 21.32 169.946 20.516 169.298 19.844C168.674 19.148 167.774 18.8 166.598 18.8C165.014 18.8 163.682 19.4 162.602 20.6C161.522 21.776 160.826 23.156 160.514 24.74C161.834 25.124 163.298 25.316 164.906 25.316ZM166.274 16.46C168.218 16.46 169.79 17 170.99 18.08C172.214 19.16 172.826 20.564 172.826 22.292C172.826 24.02 172.07 25.34 170.558 26.252C169.07 27.14 167.234 27.584 165.05 27.584C163.802 27.584 162.278 27.404 160.478 27.044C160.622 28.724 161.246 30.176 162.35 31.4C163.478 32.6 164.726 33.2 166.094 33.2C166.91 33.2 167.666 33.092 168.362 32.876C169.058 32.636 169.586 32.384 169.946 32.12C170.906 31.376 171.53 31.004 171.818 31.004C172.13 31.004 172.37 31.1 172.538 31.292C172.73 31.46 172.826 31.676 172.826 31.94C172.826 32.612 172.13 33.38 170.738 34.244C169.37 35.108 167.882 35.54 166.274 35.54C163.778 35.54 161.798 34.664 160.334 32.912C158.87 31.16 158.078 29.048 157.958 26.576C156.686 26.192 156.05 25.568 156.05 24.704C156.05 24.344 156.146 24.068 156.338 23.876C156.554 23.66 156.806 23.552 157.094 23.552C157.382 23.552 157.742 23.66 158.174 23.876C158.702 21.716 159.698 19.94 161.162 18.548C162.65 17.156 164.354 16.46 166.274 16.46ZM201.89 31.58C201.89 32.348 201.026 33.2 199.298 34.136C197.594 35.072 195.59 35.54 193.286 35.54C189.926 35.54 187.142 34.184 184.934 31.472C182.726 28.736 181.622 25.412 181.622 21.5C181.622 17.564 182.738 14.24 184.97 11.528C187.202 8.816 189.998 7.46 193.358 7.46C195.35 7.46 197.138 7.832 198.722 8.576C200.306 9.32 201.098 10.16 201.098 11.096C201.098 11.48 200.978 11.78 200.738 11.996C200.522 12.212 200.21 12.32 199.802 12.32C199.418 12.32 198.95 12.128 198.398 11.744C197.87 11.36 197.186 10.976 196.346 10.592C195.53 10.184 194.534 9.98 193.358 9.98C190.79 9.98 188.678 11.12 187.022 13.4C185.366 15.656 184.538 18.332 184.538 21.428C184.538 24.5 185.366 27.2 187.022 29.528C188.678 31.856 190.778 33.02 193.322 33.02C194.498 33.02 195.554 32.9 196.49 32.66C197.45 32.396 198.17 32.12 198.65 31.832C199.13 31.544 199.574 31.28 199.982 31.04C200.39 30.776 200.702 30.644 200.918 30.644C201.566 30.644 201.89 30.956 201.89 31.58ZM215.37 31.076C216.546 29.66 217.134 27.956 217.134 25.964C217.134 23.972 216.57 22.28 215.442 20.888C214.338 19.496 212.958 18.8 211.302 18.8C209.646 18.8 208.23 19.508 207.054 20.924C205.902 22.34 205.326 24.044 205.326 26.036C205.326 28.028 205.878 29.72 206.982 31.112C208.11 32.504 209.502 33.2 211.158 33.2C212.814 33.2 214.218 32.492 215.37 31.076ZM211.23 16.46C213.702 16.46 215.73 17.384 217.314 19.232C218.898 21.056 219.69 23.3 219.69 25.964C219.69 28.628 218.886 30.896 217.278 32.768C215.67 34.616 213.642 35.54 211.194 35.54C208.746 35.54 206.73 34.628 205.146 32.804C203.562 30.956 202.77 28.7 202.77 26.036C202.77 23.372 203.562 21.116 205.146 19.268C206.754 17.396 208.782 16.46 211.23 16.46ZM248.113 23.66L247.933 29.312C247.933 29.984 247.933 30.5 247.933 30.86C247.957 31.196 248.029 31.556 248.149 31.94C248.293 32.3 248.461 32.528 248.653 32.624C248.845 32.696 249.037 32.744 249.229 32.768C249.445 32.792 249.589 32.828 249.661 32.876C249.757 32.924 249.805 33.02 249.805 33.164C249.805 33.788 249.601 34.316 249.193 34.748C248.809 35.156 248.353 35.36 247.825 35.36C246.913 35.36 246.277 35 245.917 34.28C245.581 33.56 245.413 32.504 245.413 31.112L245.557 24.488C245.557 22.856 245.233 21.536 244.585 20.528C243.961 19.52 243.073 19.016 241.921 19.016C240.793 19.016 239.689 19.7 238.609 21.068C237.529 22.436 236.773 23.984 236.341 25.712L236.449 33.524C236.449 34.748 235.993 35.36 235.081 35.36C233.977 35.36 233.425 34.52 233.425 32.84C233.425 31.136 233.665 28.76 234.145 25.712C234.145 21.248 232.921 19.016 230.473 19.016C229.345 19.016 228.241 19.7 227.161 21.068C226.081 22.436 225.325 23.984 224.893 25.712L225.001 33.524C225.001 34.748 224.545 35.36 223.633 35.36C222.529 35.36 221.977 34.52 221.977 32.84C221.977 31.136 222.217 28.76 222.697 25.712C222.697 24.704 222.589 23.312 222.373 21.536C222.181 19.76 222.085 18.668 222.085 18.26C222.085 17.828 222.205 17.456 222.445 17.144C222.709 16.808 223.057 16.64 223.489 16.64C223.921 16.64 224.257 16.808 224.497 17.144C224.761 17.456 224.893 17.816 224.893 18.224C224.893 18.632 224.881 19.136 224.857 19.736C224.857 20.312 224.857 20.804 224.857 21.212C226.489 18.164 228.529 16.64 230.977 16.64C232.393 16.64 233.545 17.06 234.433 17.9C235.345 18.716 235.969 19.82 236.305 21.212C237.937 18.164 239.977 16.64 242.425 16.64C244.225 16.64 245.617 17.324 246.601 18.692C247.609 20.06 248.113 21.716 248.113 23.66ZM259.667 33.02C261.203 33.02 262.547 32.312 263.699 30.896C264.875 29.48 265.463 27.824 265.463 25.928C265.463 24.008 265.043 22.376 264.203 21.032C263.363 19.664 262.223 18.98 260.783 18.98C258.263 18.98 256.187 21.056 254.555 25.208V30.932C255.995 32.324 257.699 33.02 259.667 33.02ZM252.323 28.16L252.359 26.792V26.216C252.359 25.208 252.251 23.732 252.035 21.788C251.819 19.844 251.711 18.668 251.711 18.26C251.711 17.828 251.831 17.456 252.071 17.144C252.335 16.808 252.683 16.64 253.115 16.64C253.547 16.64 253.883 16.808 254.123 17.144C254.387 17.456 254.519 17.816 254.519 18.224C254.519 18.632 254.507 19.148 254.483 19.772C254.483 20.372 254.483 20.876 254.483 21.284C255.275 19.82 256.163 18.68 257.147 17.864C258.131 17.048 259.403 16.64 260.963 16.64C262.523 16.64 263.867 17.144 264.995 18.152C266.123 19.16 266.927 20.324 267.407 21.644C267.887 22.964 268.127 24.284 268.127 25.604C268.127 28.22 267.335 30.5 265.751 32.444C264.167 34.388 262.139 35.36 259.667 35.36C257.867 35.36 256.163 34.772 254.555 33.596C254.507 36.5 254.483 38.648 254.483 40.04C254.483 41.456 254.363 42.344 254.123 42.704C253.883 43.088 253.511 43.28 253.007 43.28C252.503 43.28 252.083 43.064 251.747 42.632C251.435 42.224 251.279 41.624 251.279 40.832C251.279 40.04 251.327 39.092 251.423 37.988C251.519 36.908 251.663 35.48 251.855 33.704C252.047 31.904 252.203 30.284 252.323 28.844V28.16ZM284.842 26.288C284.842 28.088 284.974 29.564 285.238 30.716C285.502 31.844 285.814 32.48 286.174 32.624C286.318 32.696 286.486 32.744 286.678 32.768C286.894 32.792 287.038 32.828 287.11 32.876C287.206 32.924 287.254 33.02 287.254 33.164C287.254 33.812 287.074 34.34 286.714 34.748C286.378 35.156 285.862 35.36 285.166 35.36C284.47 35.36 283.93 34.916 283.546 34.028C283.162 33.14 282.97 32 282.97 30.608C282.37 31.952 281.482 33.08 280.306 33.992C279.154 34.904 277.846 35.36 276.382 35.36C274.942 35.36 273.694 34.88 272.638 33.92C270.718 32.168 269.758 29.66 269.758 26.396C269.758 23.78 270.514 21.5 272.026 19.556C273.538 17.612 275.482 16.64 277.858 16.64C279.658 16.64 281.218 17.252 282.538 18.476C282.538 17.252 282.994 16.64 283.906 16.64C285.01 16.64 285.562 17.492 285.562 19.196C285.562 20.876 285.322 23.24 284.842 26.288ZM282.754 26.612L282.574 21.068C281.134 19.676 279.622 18.98 278.038 18.98C276.478 18.98 275.134 19.688 274.006 21.104C272.878 22.52 272.314 24.224 272.314 26.216C272.314 28.184 272.674 29.816 273.394 31.112C274.138 32.384 275.182 33.02 276.526 33.02C277.87 33.02 279.094 32.42 280.198 31.22C281.302 30.02 282.154 28.484 282.754 26.612ZM301.773 29.816C301.773 31.448 301.101 32.78 299.757 33.812C298.437 34.844 296.841 35.36 294.969 35.36C293.121 35.36 291.513 34.94 290.145 34.1C288.777 33.236 288.093 32.384 288.093 31.544C288.093 31.184 288.201 30.896 288.417 30.68C288.633 30.44 288.873 30.32 289.137 30.32C289.425 30.32 289.653 30.38 289.821 30.5C289.989 30.596 290.217 30.8 290.505 31.112C290.793 31.424 291.045 31.688 291.261 31.904C291.501 32.12 291.969 32.36 292.665 32.624C293.385 32.888 294.045 33.02 294.645 33.02C295.965 33.02 297.045 32.756 297.885 32.228C298.749 31.676 299.181 30.884 299.181 29.852C299.181 28.604 297.981 27.56 295.581 26.72C294.597 26.384 293.601 26.024 292.593 25.64C291.609 25.232 290.769 24.68 290.073 23.984C289.377 23.288 289.029 22.46 289.029 21.5C289.029 20.204 289.617 19.076 290.793 18.116C291.969 17.132 293.409 16.64 295.113 16.64C296.817 16.64 298.161 16.94 299.145 17.54C300.153 18.116 300.657 18.728 300.657 19.376C300.657 20.168 300.237 20.564 299.397 20.564C299.037 20.564 298.677 20.432 298.317 20.168C297.189 19.376 296.109 18.98 295.077 18.98C294.045 18.98 293.205 19.22 292.557 19.7C291.909 20.156 291.585 20.696 291.585 21.32C291.585 21.92 291.933 22.436 292.629 22.868C293.325 23.3 294.165 23.696 295.149 24.056C296.157 24.416 297.165 24.824 298.173 25.28C299.181 25.712 300.033 26.324 300.729 27.116C301.425 27.884 301.773 28.784 301.773 29.816ZM316.356 29.816C316.356 31.448 315.684 32.78 314.34 33.812C313.02 34.844 311.424 35.36 309.552 35.36C307.704 35.36 306.096 34.94 304.728 34.1C303.36 33.236 302.676 32.384 302.676 31.544C302.676 31.184 302.784 30.896 303 30.68C303.216 30.44 303.456 30.32 303.72 30.32C304.008 30.32 304.236 30.38 304.404 30.5C304.572 30.596 304.8 30.8 305.088 31.112C305.376 31.424 305.628 31.688 305.844 31.904C306.084 32.12 306.552 32.36 307.248 32.624C307.968 32.888 308.628 33.02 309.228 33.02C310.548 33.02 311.628 32.756 312.468 32.228C313.332 31.676 313.764 30.884 313.764 29.852C313.764 28.604 312.564 27.56 310.164 26.72C309.18 26.384 308.184 26.024 307.176 25.64C306.192 25.232 305.352 24.68 304.656 23.984C303.96 23.288 303.612 22.46 303.612 21.5C303.612 20.204 304.2 19.076 305.376 18.116C306.552 17.132 307.992 16.64 309.696 16.64C311.4 16.64 312.744 16.94 313.728 17.54C314.736 18.116 315.24 18.728 315.24 19.376C315.24 20.168 314.82 20.564 313.98 20.564C313.62 20.564 313.26 20.432 312.9 20.168C311.772 19.376 310.692 18.98 309.66 18.98C308.628 18.98 307.788 19.22 307.14 19.7C306.492 20.156 306.168 20.696 306.168 21.32C306.168 21.92 306.516 22.436 307.212 22.868C307.908 23.3 308.748 23.696 309.732 24.056C310.74 24.416 311.748 24.824 312.756 25.28C313.764 25.712 314.616 26.324 315.312 27.116C316.008 27.884 316.356 28.784 316.356 29.816ZM320.174 8.9C320.678 8.9 321.05 9.068 321.29 9.404C321.53 9.716 321.65 10.124 321.65 10.628C321.65 11.108 321.482 11.6 321.146 12.104C320.81 12.584 320.39 12.824 319.886 12.824C319.382 12.824 318.998 12.656 318.734 12.32C318.494 11.984 318.374 11.54 318.374 10.988C318.374 10.436 318.542 9.956 318.878 9.548C319.238 9.116 319.67 8.9 320.174 8.9ZM321.182 26L321.362 33.56C321.362 34.76 320.906 35.36 319.994 35.36C319.082 35.36 318.626 34.76 318.626 33.56L318.806 26L318.626 18.44C318.626 17.24 319.082 16.64 319.994 16.64C320.906 16.64 321.362 17.24 321.362 18.44L321.182 26ZM336.469 31.076C337.645 29.66 338.233 27.956 338.233 25.964C338.233 23.972 337.669 22.28 336.541 20.888C335.437 19.496 334.057 18.8 332.401 18.8C330.745 18.8 329.329 19.508 328.153 20.924C327.001 22.34 326.425 24.044 326.425 26.036C326.425 28.028 326.977 29.72 328.081 31.112C329.209 32.504 330.601 33.2 332.257 33.2C333.913 33.2 335.317 32.492 336.469 31.076ZM332.329 16.46C334.801 16.46 336.829 17.384 338.413 19.232C339.997 21.056 340.789 23.3 340.789 25.964C340.789 28.628 339.985 30.896 338.377 32.768C336.769 34.616 334.741 35.54 332.293 35.54C329.845 35.54 327.829 34.628 326.245 32.804C324.661 30.956 323.869 28.7 323.869 26.036C323.869 23.372 324.661 21.116 326.245 19.268C327.853 17.396 329.881 16.46 332.329 16.46ZM358.484 23.66L358.304 29.312C358.304 29.984 358.304 30.5 358.304 30.86C358.328 31.196 358.4 31.556 358.52 31.94C358.664 32.3 358.832 32.528 359.024 32.624C359.216 32.696 359.408 32.744 359.6 32.768C359.816 32.792 359.96 32.828 360.032 32.876C360.128 32.924 360.176 33.02 360.176 33.164C360.176 33.788 359.972 34.316 359.564 34.748C359.18 35.156 358.724 35.36 358.196 35.36C357.284 35.36 356.648 35 356.288 34.28C355.952 33.56 355.784 32.504 355.784 31.112L355.928 24.488C355.928 22.856 355.58 21.536 354.884 20.528C354.188 19.52 353.216 19.016 351.968 19.016C350.744 19.016 349.556 19.7 348.404 21.068C347.252 22.436 346.448 23.984 345.992 25.712L346.1 33.524C346.1 34.748 345.644 35.36 344.732 35.36C343.628 35.36 343.076 34.52 343.076 32.84C343.076 31.136 343.316 28.76 343.796 25.712C343.796 24.704 343.688 23.312 343.472 21.536C343.28 19.76 343.184 18.668 343.184 18.26C343.184 17.828 343.304 17.456 343.544 17.144C343.808 16.808 344.156 16.64 344.588 16.64C345.02 16.64 345.356 16.808 345.596 17.144C345.86 17.456 345.992 17.816 345.992 18.224C345.992 18.632 345.98 19.136 345.956 19.736C345.956 20.312 345.956 20.804 345.956 21.212C347.708 18.164 349.868 16.64 352.436 16.64C354.356 16.64 355.844 17.324 356.9 18.692C357.956 20.06 358.484 21.716 358.484 23.66ZM388.774 31.58C388.774 32.348 387.91 33.2 386.182 34.136C384.478 35.072 382.474 35.54 380.17 35.54C376.81 35.54 374.026 34.184 371.818 31.472C369.61 28.736 368.506 25.412 368.506 21.5C368.506 17.564 369.622 14.24 371.854 11.528C374.086 8.816 376.882 7.46 380.242 7.46C382.234 7.46 384.022 7.832 385.606 8.576C387.19 9.32 387.982 10.16 387.982 11.096C387.982 11.48 387.862 11.78 387.622 11.996C387.406 12.212 387.094 12.32 386.686 12.32C386.302 12.32 385.834 12.128 385.282 11.744C384.754 11.36 384.07 10.976 383.23 10.592C382.414 10.184 381.418 9.98 380.242 9.98C377.674 9.98 375.562 11.12 373.906 13.4C372.25 15.656 371.422 18.332 371.422 21.428C371.422 24.5 372.25 27.2 373.906 29.528C375.562 31.856 377.662 33.02 380.206 33.02C381.382 33.02 382.438 32.9 383.374 32.66C384.334 32.396 385.054 32.12 385.534 31.832C386.014 31.544 386.458 31.28 386.866 31.04C387.274 30.776 387.586 30.644 387.802 30.644C388.45 30.644 388.774 30.956 388.774 31.58ZM397.12 25.316C398.752 25.316 400.048 25.04 401.008 24.488C401.992 23.936 402.484 23.192 402.484 22.256C402.484 21.32 402.16 20.516 401.512 19.844C400.888 19.148 399.988 18.8 398.812 18.8C397.228 18.8 395.896 19.4 394.816 20.6C393.736 21.776 393.04 23.156 392.728 24.74C394.048 25.124 395.512 25.316 397.12 25.316ZM398.488 16.46C400.432 16.46 402.004 17 403.204 18.08C404.428 19.16 405.04 20.564 405.04 22.292C405.04 24.02 404.284 25.34 402.772 26.252C401.284 27.14 399.448 27.584 397.264 27.584C396.016 27.584 394.492 27.404 392.692 27.044C392.836 28.724 393.46 30.176 394.564 31.4C395.692 32.6 396.94 33.2 398.308 33.2C399.124 33.2 399.88 33.092 400.576 32.876C401.272 32.636 401.8 32.384 402.16 32.12C403.12 31.376 403.744 31.004 404.032 31.004C404.344 31.004 404.584 31.1 404.752 31.292C404.944 31.46 405.04 31.676 405.04 31.94C405.04 32.612 404.344 33.38 402.952 34.244C401.584 35.108 400.096 35.54 398.488 35.54C395.992 35.54 394.012 34.664 392.548 32.912C391.084 31.16 390.292 29.048 390.172 26.576C388.9 26.192 388.264 25.568 388.264 24.704C388.264 24.344 388.36 24.068 388.552 23.876C388.768 23.66 389.02 23.552 389.308 23.552C389.596 23.552 389.956 23.66 390.388 23.876C390.916 21.716 391.912 19.94 393.376 18.548C394.864 17.156 396.568 16.46 398.488 16.46ZM422.862 23.66L422.682 29.312C422.682 29.984 422.682 30.5 422.682 30.86C422.706 31.196 422.778 31.556 422.898 31.94C423.042 32.3 423.21 32.528 423.402 32.624C423.594 32.696 423.786 32.744 423.978 32.768C424.194 32.792 424.338 32.828 424.41 32.876C424.506 32.924 424.554 33.02 424.554 33.164C424.554 33.788 424.35 34.316 423.942 34.748C423.558 35.156 423.102 35.36 422.574 35.36C421.662 35.36 421.026 35 420.666 34.28C420.33 33.56 420.162 32.504 420.162 31.112L420.306 24.488C420.306 22.856 419.958 21.536 419.262 20.528C418.566 19.52 417.594 19.016 416.346 19.016C415.122 19.016 413.934 19.7 412.782 21.068C411.63 22.436 410.826 23.984 410.37 25.712L410.478 33.524C410.478 34.748 410.022 35.36 409.11 35.36C408.006 35.36 407.454 34.52 407.454 32.84C407.454 31.136 407.694 28.76 408.174 25.712C408.174 24.704 408.066 23.312 407.85 21.536C407.658 19.76 407.562 18.668 407.562 18.26C407.562 17.828 407.682 17.456 407.922 17.144C408.186 16.808 408.534 16.64 408.966 16.64C409.398 16.64 409.734 16.808 409.974 17.144C410.238 17.456 410.37 17.816 410.37 18.224C410.37 18.632 410.358 19.136 410.334 19.736C410.334 20.312 410.334 20.804 410.334 21.212C412.086 18.164 414.246 16.64 416.814 16.64C418.734 16.64 420.222 17.324 421.278 18.692C422.334 20.06 422.862 21.716 422.862 23.66ZM430.325 19.196L430.253 27.728C430.253 29.912 430.337 31.34 430.505 32.012C430.697 32.684 431.177 33.02 431.945 33.02C432.305 33.02 432.737 32.9 433.241 32.66C433.769 32.396 434.117 32.264 434.285 32.264C434.789 32.264 435.041 32.516 435.041 33.02C435.041 33.5 434.597 34.016 433.709 34.568C432.821 35.096 431.945 35.36 431.081 35.36C428.993 35.36 427.949 33.824 427.949 30.752L427.913 19.196C427.121 19.268 426.569 19.304 426.257 19.304C425.057 19.304 424.457 18.908 424.457 18.116C424.457 17.324 425.057 16.928 426.257 16.928C426.353 16.928 426.881 16.952 427.841 17L427.769 12.968C427.769 11.768 428.225 11.168 429.137 11.168C430.049 11.168 430.505 11.768 430.505 12.968L430.397 17.036L433.313 16.892C434.513 16.892 435.113 17.3 435.113 18.116C435.113 18.884 434.513 19.268 433.313 19.268C433.097 19.268 432.101 19.244 430.325 19.196ZM443.4 25.316C445.032 25.316 446.328 25.04 447.288 24.488C448.272 23.936 448.764 23.192 448.764 22.256C448.764 21.32 448.44 20.516 447.792 19.844C447.168 19.148 446.268 18.8 445.092 18.8C443.508 18.8 442.176 19.4 441.096 20.6C440.016 21.776 439.32 23.156 439.008 24.74C440.328 25.124 441.792 25.316 443.4 25.316ZM444.768 16.46C446.712 16.46 448.284 17 449.484 18.08C450.708 19.16 451.32 20.564 451.32 22.292C451.32 24.02 450.564 25.34 449.052 26.252C447.564 27.14 445.728 27.584 443.544 27.584C442.296 27.584 440.772 27.404 438.972 27.044C439.116 28.724 439.74 30.176 440.844 31.4C441.972 32.6 443.22 33.2 444.588 33.2C445.404 33.2 446.16 33.092 446.856 32.876C447.552 32.636 448.08 32.384 448.44 32.12C449.4 31.376 450.024 31.004 450.312 31.004C450.624 31.004 450.864 31.1 451.032 31.292C451.224 31.46 451.32 31.676 451.32 31.94C451.32 32.612 450.624 33.38 449.232 34.244C447.864 35.108 446.376 35.54 444.768 35.54C442.272 35.54 440.292 34.664 438.828 32.912C437.364 31.16 436.572 29.048 436.452 26.576C435.18 26.192 434.544 25.568 434.544 24.704C434.544 24.344 434.64 24.068 434.832 23.876C435.048 23.66 435.3 23.552 435.588 23.552C435.876 23.552 436.236 23.66 436.668 23.876C437.196 21.716 438.192 19.94 439.656 18.548C441.144 17.156 442.848 16.46 444.768 16.46ZM456.65 26.756L456.758 33.524C456.758 34.748 456.302 35.36 455.39 35.36C454.286 35.36 453.734 34.52 453.734 32.84C453.734 31.136 453.974 28.76 454.454 25.712C454.454 24.704 454.346 23.324 454.13 21.572C453.938 19.82 453.842 18.728 453.842 18.296C453.842 17.864 453.962 17.48 454.202 17.144C454.466 16.808 454.814 16.64 455.246 16.64C455.678 16.64 456.014 16.808 456.254 17.144C456.518 17.48 456.65 17.852 456.65 18.26C456.65 18.644 456.638 19.148 456.614 19.772C456.614 20.372 456.614 20.876 456.614 21.284C457.094 20.06 457.838 18.98 458.846 18.044C459.878 17.108 460.934 16.64 462.014 16.64C463.094 16.64 463.922 16.868 464.498 17.324C465.098 17.756 465.398 18.224 465.398 18.728C465.398 19.232 465.266 19.628 465.002 19.916C464.738 20.204 464.39 20.348 463.958 20.348C463.55 20.348 463.094 20.132 462.59 19.7C462.11 19.244 461.726 19.016 461.438 19.016C460.646 19.016 459.722 19.868 458.666 21.572C457.61 23.276 456.938 25.004 456.65 26.756Z" fill="#EDF1DD"/>
<path d="M44.5057 22.4748L33.5003 11.4751L22.4943 22.4748C16.5044 28.457 16.4228 38.1006 22.239 44.1875L22.4986 44.4467C25.5365 47.4807 29.5181 48.9986 33.5003 48.9992C37.4813 48.998 41.4635 47.4807 44.5014 44.4467L44.761 44.1875C50.5778 38.1006 50.4956 28.457 44.5057 22.4748Z" fill="#FF6803"/>
<path d="M16.9719 38.9311C16.3755 37.1289 16.0724 35.2225 16.0933 33.2719C16.1424 28.7011 17.9518 24.4041 21.1885 21.1716L32.1945 10.1725L32.1952 10.1719L26.5673 4.5519C20.4909 -1.51726 10.6366 -1.51604 4.55896 4.5519C-1.51745 10.6223 -1.5199 20.4626 4.55896 26.5318L4.55405 26.5373L16.9719 38.9311Z" fill="#EDF1DD" fill-opacity="0.79"/>
<path d="M62.4416 4.55117C56.364 -1.51677 46.5097 -1.51799 40.4339 4.55117L34.8054 10.1705L34.8066 10.1718L45.8114 21.1709C49.0481 24.4034 50.8582 28.701 50.9073 33.2718C50.9288 35.2217 50.6257 37.1282 50.0293 38.9304L62.4471 26.5372L62.4422 26.5316C68.5205 20.4625 68.5186 10.6215 62.4416 4.55117Z" fill="#EDF1DD" fill-opacity="0.79"/>
<path d="M96.56 84.14C96.2933 84.14 96.0867 84.0667 95.94 83.92C95.8067 83.76 95.74 83.5467 95.74 83.28V70.62C95.74 70.34 95.8067 70.1267 95.94 69.98C96.0867 69.8333 96.2933 69.76 96.56 69.76C96.8267 69.76 97.0267 69.8333 97.16 69.98C97.3067 70.1267 97.38 70.34 97.38 70.62V83.28C97.38 83.5467 97.3133 83.76 97.18 83.92C97.0467 84.0667 96.84 84.14 96.56 84.14ZM101.457 84.14C101.19 84.14 100.99 84.0667 100.857 83.92C100.723 83.7733 100.657 83.5667 100.657 83.3V74.96C100.657 74.6933 100.723 74.4933 100.857 74.36C100.99 74.2133 101.183 74.14 101.437 74.14C101.69 74.14 101.883 74.2133 102.017 74.36C102.163 74.4933 102.237 74.6933 102.237 74.96V76.68L102.017 76.44C102.297 75.6667 102.75 75.0867 103.377 74.7C104.017 74.3 104.75 74.1 105.577 74.1C106.35 74.1 106.99 74.24 107.497 74.52C108.017 74.8 108.403 75.2267 108.657 75.8C108.91 76.36 109.037 77.0733 109.037 77.94V83.3C109.037 83.5667 108.963 83.7733 108.817 83.92C108.683 84.0667 108.49 84.14 108.237 84.14C107.97 84.14 107.763 84.0667 107.617 83.92C107.483 83.7733 107.417 83.5667 107.417 83.3V78.04C107.417 77.1333 107.237 76.4733 106.877 76.06C106.53 75.6333 105.97 75.42 105.197 75.42C104.303 75.42 103.59 75.7 103.057 76.26C102.537 76.8067 102.277 77.54 102.277 78.46V83.3C102.277 83.86 102.003 84.14 101.457 84.14ZM115.304 84.18C114.704 84.18 114.097 84.1067 113.484 83.96C112.884 83.8133 112.324 83.56 111.804 83.2C111.671 83.1067 111.577 83 111.524 82.88C111.471 82.7467 111.451 82.62 111.464 82.5C111.491 82.3667 111.544 82.2533 111.624 82.16C111.717 82.0667 111.824 82.0133 111.944 82C112.077 81.9733 112.224 82 112.384 82.08C112.904 82.4 113.404 82.6267 113.884 82.76C114.377 82.88 114.864 82.94 115.344 82.94C116.104 82.94 116.677 82.8 117.064 82.52C117.451 82.24 117.644 81.86 117.644 81.38C117.644 81.0067 117.517 80.7133 117.264 80.5C117.011 80.2733 116.611 80.1 116.064 79.98L114.244 79.58C113.404 79.4067 112.777 79.1067 112.364 78.68C111.964 78.2533 111.764 77.7 111.764 77.02C111.764 76.42 111.917 75.9067 112.224 75.48C112.544 75.04 112.991 74.7 113.564 74.46C114.137 74.22 114.804 74.1 115.564 74.1C116.151 74.1 116.704 74.18 117.224 74.34C117.757 74.4867 118.237 74.7267 118.664 75.06C118.797 75.1533 118.884 75.2667 118.924 75.4C118.977 75.52 118.984 75.6467 118.944 75.78C118.917 75.9 118.857 76.0067 118.764 76.1C118.671 76.18 118.557 76.2267 118.424 76.24C118.291 76.2533 118.151 76.2133 118.004 76.12C117.604 75.8533 117.197 75.66 116.784 75.54C116.371 75.4067 115.964 75.34 115.564 75.34C114.817 75.34 114.251 75.4867 113.864 75.78C113.477 76.0733 113.284 76.46 113.284 76.94C113.284 77.3133 113.404 77.62 113.644 77.86C113.884 78.1 114.257 78.2733 114.764 78.38L116.584 78.76C117.451 78.9467 118.097 79.2467 118.524 79.66C118.964 80.06 119.184 80.6067 119.184 81.3C119.184 82.18 118.831 82.88 118.124 83.4C117.417 83.92 116.477 84.18 115.304 84.18ZM122.453 87.74C122.186 87.74 121.986 87.6667 121.853 87.52C121.719 87.3867 121.653 87.1867 121.653 86.92V74.96C121.653 74.6933 121.719 74.4933 121.853 74.36C121.986 74.2133 122.179 74.14 122.433 74.14C122.699 74.14 122.899 74.2133 123.033 74.36C123.179 74.4933 123.253 74.6933 123.253 74.96V76.86L123.033 76.58C123.246 75.82 123.666 75.22 124.293 74.78C124.933 74.3267 125.693 74.1 126.573 74.1C127.439 74.1 128.193 74.3067 128.833 74.72C129.486 75.12 129.986 75.7 130.333 76.46C130.693 77.2067 130.873 78.1 130.873 79.14C130.873 80.1667 130.693 81.06 130.333 81.82C129.986 82.5667 129.493 83.1467 128.853 83.56C128.213 83.9733 127.453 84.18 126.573 84.18C125.693 84.18 124.939 83.96 124.313 83.52C123.686 83.0667 123.259 82.4667 123.033 81.72H123.273V86.92C123.273 87.1867 123.199 87.3867 123.053 87.52C122.906 87.6667 122.706 87.74 122.453 87.74ZM126.233 82.88C126.846 82.88 127.373 82.7333 127.813 82.44C128.266 82.1467 128.613 81.72 128.853 81.16C129.106 80.6 129.233 79.9267 129.233 79.14C129.233 77.9267 128.959 77 128.413 76.36C127.879 75.72 127.153 75.4 126.233 75.4C125.633 75.4 125.106 75.5467 124.653 75.84C124.199 76.12 123.846 76.54 123.593 77.1C123.353 77.6467 123.233 78.3267 123.233 79.14C123.233 80.34 123.506 81.2667 124.053 81.92C124.599 82.56 125.326 82.88 126.233 82.88ZM134.113 84.1C133.846 84.1 133.646 84.0267 133.513 83.88C133.38 83.72 133.313 83.5 133.313 83.22V75.04C133.313 74.76 133.38 74.5467 133.513 74.4C133.646 74.2533 133.846 74.18 134.113 74.18C134.366 74.18 134.566 74.2533 134.713 74.4C134.86 74.5467 134.933 74.76 134.933 75.04V83.22C134.933 83.5 134.86 83.72 134.713 83.88C134.58 84.0267 134.38 84.1 134.113 84.1ZM134.113 71.94C133.78 71.94 133.52 71.8533 133.333 71.68C133.146 71.4933 133.053 71.2467 133.053 70.94C133.053 70.62 133.146 70.38 133.333 70.22C133.52 70.0467 133.78 69.96 134.113 69.96C134.46 69.96 134.72 70.0467 134.893 70.22C135.08 70.38 135.173 70.62 135.173 70.94C135.173 71.2467 135.08 71.4933 134.893 71.68C134.72 71.8533 134.46 71.94 134.113 71.94ZM138.781 84.14C138.515 84.14 138.308 84.0667 138.161 83.92C138.028 83.7733 137.961 83.5667 137.961 83.3V74.96C137.961 74.6933 138.028 74.4933 138.161 74.36C138.295 74.2133 138.488 74.14 138.741 74.14C138.995 74.14 139.188 74.2133 139.321 74.36C139.468 74.4933 139.541 74.6933 139.541 74.96V76.58H139.341C139.555 75.7933 139.961 75.1867 140.561 74.76C141.161 74.3333 141.901 74.1067 142.781 74.08C142.981 74.0667 143.141 74.1133 143.261 74.22C143.381 74.3133 143.448 74.48 143.461 74.72C143.475 74.9467 143.421 75.1267 143.301 75.26C143.181 75.3933 142.995 75.4733 142.741 75.5L142.421 75.54C141.515 75.62 140.815 75.9133 140.321 76.42C139.841 76.9133 139.601 77.5933 139.601 78.46V83.3C139.601 83.5667 139.528 83.7733 139.381 83.92C139.248 84.0667 139.048 84.14 138.781 84.14ZM145.929 84.1C145.663 84.1 145.463 84.0267 145.329 83.88C145.196 83.72 145.129 83.5 145.129 83.22V75.04C145.129 74.76 145.196 74.5467 145.329 74.4C145.463 74.2533 145.663 74.18 145.929 74.18C146.183 74.18 146.383 74.2533 146.529 74.4C146.676 74.5467 146.749 74.76 146.749 75.04V83.22C146.749 83.5 146.676 83.72 146.529 83.88C146.396 84.0267 146.196 84.1 145.929 84.1ZM145.929 71.94C145.596 71.94 145.336 71.8533 145.149 71.68C144.963 71.4933 144.869 71.2467 144.869 70.94C144.869 70.62 144.963 70.38 145.149 70.22C145.336 70.0467 145.596 69.96 145.929 69.96C146.276 69.96 146.536 70.0467 146.709 70.22C146.896 70.38 146.989 70.62 146.989 70.94C146.989 71.2467 146.896 71.4933 146.709 71.68C146.536 71.8533 146.276 71.94 145.929 71.94ZM150.578 84.14C150.311 84.14 150.111 84.0667 149.978 83.92C149.844 83.7733 149.778 83.5667 149.778 83.3V74.96C149.778 74.6933 149.844 74.4933 149.978 74.36C150.111 74.2133 150.304 74.14 150.558 74.14C150.811 74.14 151.004 74.2133 151.138 74.36C151.284 74.4933 151.358 74.6933 151.358 74.96V76.68L151.138 76.44C151.418 75.6667 151.871 75.0867 152.498 74.7C153.138 74.3 153.871 74.1 154.698 74.1C155.471 74.1 156.111 74.24 156.618 74.52C157.138 74.8 157.524 75.2267 157.778 75.8C158.031 76.36 158.158 77.0733 158.158 77.94V83.3C158.158 83.5667 158.084 83.7733 157.938 83.92C157.804 84.0667 157.611 84.14 157.358 84.14C157.091 84.14 156.884 84.0667 156.738 83.92C156.604 83.7733 156.538 83.5667 156.538 83.3V78.04C156.538 77.1333 156.358 76.4733 155.998 76.06C155.651 75.6333 155.091 75.42 154.318 75.42C153.424 75.42 152.711 75.7 152.178 76.26C151.658 76.8067 151.398 77.54 151.398 78.46V83.3C151.398 83.86 151.124 84.14 150.578 84.14ZM165.445 87.78C164.738 87.78 164.045 87.6933 163.365 87.52C162.698 87.36 162.092 87.1 161.545 86.74C161.385 86.6467 161.278 86.5333 161.225 86.4C161.185 86.2667 161.178 86.1333 161.205 86C161.232 85.88 161.292 85.7667 161.385 85.66C161.478 85.5667 161.585 85.5067 161.705 85.48C161.838 85.4533 161.972 85.4733 162.105 85.54C162.692 85.9 163.252 86.1467 163.785 86.28C164.318 86.4133 164.845 86.48 165.365 86.48C166.312 86.48 167.025 86.2267 167.505 85.72C167.998 85.2133 168.245 84.48 168.245 83.52V81.26H168.445C168.245 82.0333 167.818 82.6467 167.165 83.1C166.525 83.5533 165.772 83.78 164.905 83.78C164.012 83.78 163.238 83.58 162.585 83.18C161.932 82.7667 161.425 82.1933 161.065 81.46C160.718 80.7267 160.545 79.88 160.545 78.92C160.545 78.2 160.645 77.5467 160.845 76.96C161.045 76.36 161.332 75.8533 161.705 75.44C162.092 75.0133 162.552 74.6867 163.085 74.46C163.632 74.22 164.238 74.1 164.905 74.1C165.785 74.1 166.545 74.3267 167.185 74.78C167.825 75.22 168.238 75.82 168.425 76.58L168.225 76.82V74.96C168.225 74.6933 168.292 74.4933 168.425 74.36C168.572 74.2133 168.772 74.14 169.025 74.14C169.292 74.14 169.492 74.2133 169.625 74.36C169.758 74.4933 169.825 74.6933 169.825 74.96V83.3C169.825 84.78 169.452 85.8933 168.705 86.64C167.972 87.4 166.885 87.78 165.445 87.78ZM165.205 82.46C165.832 82.46 166.372 82.32 166.825 82.04C167.278 81.7467 167.625 81.3333 167.865 80.8C168.118 80.2667 168.245 79.64 168.245 78.92C168.245 77.84 167.972 76.9867 167.425 76.36C166.878 75.72 166.138 75.4 165.205 75.4C164.592 75.4 164.058 75.5467 163.605 75.84C163.152 76.12 162.798 76.5267 162.545 77.06C162.305 77.58 162.185 78.2 162.185 78.92C162.185 80 162.458 80.86 163.005 81.5C163.552 82.14 164.285 82.46 165.205 82.46ZM178.82 84.14C178.553 84.14 178.353 84.0667 178.22 83.92C178.087 83.7733 178.02 83.5667 178.02 83.3V70.58C178.02 70.3133 178.087 70.1133 178.22 69.98C178.353 69.8333 178.553 69.76 178.82 69.76C179.073 69.76 179.273 69.8333 179.42 69.98C179.567 70.1133 179.64 70.3133 179.64 70.58V76.44H179.38C179.66 75.6667 180.113 75.0867 180.74 74.7C181.38 74.3 182.113 74.1 182.94 74.1C183.713 74.1 184.353 74.24 184.86 74.52C185.38 74.8 185.767 75.2267 186.02 75.8C186.273 76.36 186.4 77.0733 186.4 77.94V83.3C186.4 83.5667 186.327 83.7733 186.18 83.92C186.047 84.0667 185.853 84.14 185.6 84.14C185.333 84.14 185.127 84.0667 184.98 83.92C184.847 83.7733 184.78 83.5667 184.78 83.3V78.04C184.78 77.1333 184.6 76.4733 184.24 76.06C183.893 75.6333 183.333 75.42 182.56 75.42C181.667 75.42 180.953 75.7 180.42 76.26C179.9 76.8067 179.64 77.54 179.64 78.46V83.3C179.64 83.86 179.367 84.14 178.82 84.14ZM193.427 84.18C192.481 84.18 191.661 83.9733 190.967 83.56C190.274 83.1467 189.734 82.5667 189.347 81.82C188.974 81.06 188.787 80.1667 188.787 79.14C188.787 78.3667 188.894 77.6733 189.107 77.06C189.321 76.4333 189.634 75.9 190.047 75.46C190.461 75.02 190.947 74.6867 191.507 74.46C192.081 74.22 192.721 74.1 193.427 74.1C194.374 74.1 195.194 74.3067 195.887 74.72C196.581 75.1333 197.114 75.72 197.487 76.48C197.874 77.2267 198.067 78.1133 198.067 79.14C198.067 79.9133 197.961 80.6067 197.747 81.22C197.534 81.8333 197.221 82.3667 196.807 82.82C196.394 83.26 195.901 83.6 195.327 83.84C194.767 84.0667 194.134 84.18 193.427 84.18ZM193.427 82.88C194.027 82.88 194.554 82.7333 195.007 82.44C195.461 82.1467 195.807 81.72 196.047 81.16C196.301 80.6 196.427 79.9267 196.427 79.14C196.427 77.9267 196.154 77 195.607 76.36C195.074 75.72 194.347 75.4 193.427 75.4C192.814 75.4 192.281 75.5467 191.827 75.84C191.387 76.12 191.041 76.54 190.787 77.1C190.547 77.6467 190.427 78.3267 190.427 79.14C190.427 80.34 190.701 81.2667 191.247 81.92C191.794 82.56 192.521 82.88 193.427 82.88ZM201.3 87.74C201.034 87.74 200.834 87.6667 200.7 87.52C200.567 87.3867 200.5 87.1867 200.5 86.92V74.96C200.5 74.6933 200.567 74.4933 200.7 74.36C200.834 74.2133 201.027 74.14 201.28 74.14C201.547 74.14 201.747 74.2133 201.88 74.36C202.027 74.4933 202.1 74.6933 202.1 74.96V76.86L201.88 76.58C202.094 75.82 202.514 75.22 203.14 74.78C203.78 74.3267 204.54 74.1 205.42 74.1C206.287 74.1 207.04 74.3067 207.68 74.72C208.334 75.12 208.834 75.7 209.18 76.46C209.54 77.2067 209.72 78.1 209.72 79.14C209.72 80.1667 209.54 81.06 209.18 81.82C208.834 82.5667 208.34 83.1467 207.7 83.56C207.06 83.9733 206.3 84.18 205.42 84.18C204.54 84.18 203.787 83.96 203.16 83.52C202.534 83.0667 202.107 82.4667 201.88 81.72H202.12V86.92C202.12 87.1867 202.047 87.3867 201.9 87.52C201.754 87.6667 201.554 87.74 201.3 87.74ZM205.08 82.88C205.694 82.88 206.22 82.7333 206.66 82.44C207.114 82.1467 207.46 81.72 207.7 81.16C207.954 80.6 208.08 79.9267 208.08 79.14C208.08 77.9267 207.807 77 207.26 76.36C206.727 75.72 206 75.4 205.08 75.4C204.48 75.4 203.954 75.5467 203.5 75.84C203.047 76.12 202.694 76.54 202.44 77.1C202.2 77.6467 202.08 78.3267 202.08 79.14C202.08 80.34 202.354 81.2667 202.9 81.92C203.447 82.56 204.174 82.88 205.08 82.88ZM216.541 84.18C215.514 84.18 214.627 83.98 213.881 83.58C213.147 83.1667 212.574 82.5867 212.161 81.84C211.761 81.0933 211.561 80.2 211.561 79.16C211.561 78.1467 211.761 77.2667 212.161 76.52C212.561 75.76 213.107 75.1667 213.801 74.74C214.507 74.3133 215.321 74.1 216.241 74.1C216.894 74.1 217.481 74.2133 218.001 74.44C218.521 74.6533 218.961 74.9667 219.321 75.38C219.694 75.7933 219.974 76.2933 220.161 76.88C220.361 77.4667 220.461 78.1267 220.461 78.86C220.461 79.0733 220.401 79.2333 220.281 79.34C220.161 79.4333 219.987 79.48 219.761 79.48H212.801V78.42H219.381L219.061 78.68C219.061 77.96 218.954 77.3533 218.741 76.86C218.527 76.3533 218.214 75.9667 217.801 75.7C217.401 75.4333 216.894 75.3 216.281 75.3C215.601 75.3 215.021 75.46 214.541 75.78C214.074 76.0867 213.721 76.52 213.481 77.08C213.241 77.6267 213.121 78.2667 213.121 79V79.12C213.121 80.3467 213.414 81.28 214.001 81.92C214.601 82.56 215.447 82.88 216.541 82.88C216.994 82.88 217.441 82.82 217.881 82.7C218.334 82.58 218.774 82.38 219.201 82.1C219.387 81.98 219.554 81.9267 219.701 81.94C219.861 81.94 219.987 81.9867 220.081 82.08C220.174 82.16 220.234 82.2667 220.261 82.4C220.301 82.52 220.287 82.6533 220.221 82.8C220.167 82.9467 220.054 83.0733 219.881 83.18C219.441 83.5 218.921 83.7467 218.321 83.92C217.721 84.0933 217.127 84.18 216.541 84.18ZM231.021 84.18C230.355 84.18 229.755 84.0533 229.221 83.8C228.701 83.5333 228.288 83.1733 227.981 82.72C227.675 82.2667 227.521 81.76 227.521 81.2C227.521 80.48 227.701 79.9133 228.061 79.5C228.435 79.0867 229.041 78.7933 229.881 78.62C230.735 78.4467 231.895 78.36 233.361 78.36H234.261V79.42H233.381C232.301 79.42 231.448 79.4733 230.821 79.58C230.208 79.6733 229.775 79.84 229.521 80.08C229.281 80.32 229.161 80.66 229.161 81.1C229.161 81.6467 229.348 82.0933 229.721 82.44C230.108 82.7867 230.628 82.96 231.281 82.96C231.815 82.96 232.281 82.8333 232.681 82.58C233.095 82.3267 233.415 81.98 233.641 81.54C233.881 81.1 234.001 80.5933 234.001 80.02V77.74C234.001 76.9133 233.835 76.32 233.501 75.96C233.168 75.5867 232.621 75.4 231.861 75.4C231.395 75.4 230.928 75.46 230.461 75.58C229.995 75.7 229.501 75.8933 228.981 76.16C228.795 76.2533 228.635 76.2867 228.501 76.26C228.368 76.22 228.261 76.1467 228.181 76.04C228.101 75.9333 228.055 75.8133 228.041 75.68C228.028 75.5333 228.055 75.3933 228.121 75.26C228.201 75.1267 228.321 75.02 228.481 74.94C229.068 74.6467 229.648 74.4333 230.221 74.3C230.795 74.1667 231.341 74.1 231.861 74.1C232.701 74.1 233.395 74.24 233.941 74.52C234.488 74.7867 234.895 75.2 235.161 75.76C235.428 76.3067 235.561 77.0133 235.561 77.88V83.3C235.561 83.5667 235.495 83.7733 235.361 83.92C235.241 84.0667 235.061 84.14 234.821 84.14C234.568 84.14 234.375 84.0667 234.241 83.92C234.108 83.7733 234.041 83.5667 234.041 83.3V81.74H234.221C234.115 82.2467 233.908 82.68 233.601 83.04C233.308 83.4 232.941 83.68 232.501 83.88C232.061 84.08 231.568 84.18 231.021 84.18ZM242.687 84.18C241.714 84.18 240.874 83.9667 240.167 83.54C239.46 83.1133 238.914 82.52 238.527 81.76C238.154 80.9867 237.967 80.0933 237.967 79.08C237.967 78.3067 238.074 77.6133 238.287 77C238.5 76.3867 238.814 75.8667 239.227 75.44C239.64 75 240.134 74.6667 240.707 74.44C241.294 74.2133 241.954 74.1 242.687 74.1C243.167 74.1 243.667 74.1733 244.187 74.32C244.707 74.4667 245.18 74.72 245.607 75.08C245.74 75.1733 245.827 75.2867 245.867 75.42C245.907 75.5533 245.907 75.6867 245.867 75.82C245.827 75.94 245.76 76.0467 245.667 76.14C245.574 76.22 245.454 76.2667 245.307 76.28C245.174 76.2933 245.034 76.2467 244.887 76.14C244.54 75.8733 244.187 75.6867 243.827 75.58C243.467 75.4733 243.12 75.42 242.787 75.42C242.267 75.42 241.814 75.5067 241.427 75.68C241.04 75.84 240.714 76.0733 240.447 76.38C240.18 76.6867 239.974 77.0667 239.827 77.52C239.694 77.9733 239.627 78.5 239.627 79.1C239.627 80.26 239.9 81.18 240.447 81.86C240.994 82.5267 241.774 82.86 242.787 82.86C243.12 82.86 243.46 82.8067 243.807 82.7C244.167 82.5933 244.527 82.4067 244.887 82.14C245.034 82.0333 245.174 81.9867 245.307 82C245.44 82.0133 245.554 82.0667 245.647 82.16C245.74 82.24 245.8 82.3467 245.827 82.48C245.867 82.6133 245.867 82.7467 245.827 82.88C245.787 83 245.7 83.1067 245.567 83.2C245.14 83.5467 244.674 83.8 244.167 83.96C243.66 84.1067 243.167 84.18 242.687 84.18ZM248.645 84.14C248.378 84.14 248.171 84.0667 248.025 83.92C247.891 83.7733 247.825 83.5667 247.825 83.3V74.96C247.825 74.6933 247.891 74.4933 248.025 74.36C248.158 74.2133 248.351 74.14 248.605 74.14C248.858 74.14 249.051 74.2133 249.185 74.36C249.331 74.4933 249.405 74.6933 249.405 74.96V76.58H249.205C249.418 75.7933 249.825 75.1867 250.425 74.76C251.025 74.3333 251.765 74.1067 252.645 74.08C252.845 74.0667 253.005 74.1133 253.125 74.22C253.245 74.3133 253.311 74.48 253.325 74.72C253.338 74.9467 253.285 75.1267 253.165 75.26C253.045 75.3933 252.858 75.4733 252.605 75.5L252.285 75.54C251.378 75.62 250.678 75.9133 250.185 76.42C249.705 76.9133 249.465 77.5933 249.465 78.46V83.3C249.465 83.5667 249.391 83.7733 249.245 83.92C249.111 84.0667 248.911 84.14 248.645 84.14ZM258.915 84.18C257.969 84.18 257.149 83.9733 256.455 83.56C255.762 83.1467 255.222 82.5667 254.835 81.82C254.462 81.06 254.275 80.1667 254.275 79.14C254.275 78.3667 254.382 77.6733 254.595 77.06C254.809 76.4333 255.122 75.9 255.535 75.46C255.949 75.02 256.435 74.6867 256.995 74.46C257.569 74.22 258.209 74.1 258.915 74.1C259.862 74.1 260.682 74.3067 261.375 74.72C262.069 75.1333 262.602 75.72 262.975 76.48C263.362 77.2267 263.555 78.1133 263.555 79.14C263.555 79.9133 263.449 80.6067 263.235 81.22C263.022 81.8333 262.709 82.3667 262.295 82.82C261.882 83.26 261.389 83.6 260.815 83.84C260.255 84.0667 259.622 84.18 258.915 84.18ZM258.915 82.88C259.515 82.88 260.042 82.7333 260.495 82.44C260.949 82.1467 261.295 81.72 261.535 81.16C261.789 80.6 261.915 79.9267 261.915 79.14C261.915 77.9267 261.642 77 261.095 76.36C260.562 75.72 259.835 75.4 258.915 75.4C258.302 75.4 257.769 75.5467 257.315 75.84C256.875 76.12 256.529 76.54 256.275 77.1C256.035 77.6467 255.915 78.3267 255.915 79.14C255.915 80.34 256.189 81.2667 256.735 81.92C257.282 82.56 258.009 82.88 258.915 82.88ZM269.269 84.18C268.669 84.18 268.062 84.1067 267.449 83.96C266.849 83.8133 266.289 83.56 265.769 83.2C265.635 83.1067 265.542 83 265.489 82.88C265.435 82.7467 265.415 82.62 265.429 82.5C265.455 82.3667 265.509 82.2533 265.589 82.16C265.682 82.0667 265.789 82.0133 265.909 82C266.042 81.9733 266.189 82 266.349 82.08C266.869 82.4 267.369 82.6267 267.849 82.76C268.342 82.88 268.829 82.94 269.309 82.94C270.069 82.94 270.642 82.8 271.029 82.52C271.415 82.24 271.609 81.86 271.609 81.38C271.609 81.0067 271.482 80.7133 271.229 80.5C270.975 80.2733 270.575 80.1 270.029 79.98L268.209 79.58C267.369 79.4067 266.742 79.1067 266.329 78.68C265.929 78.2533 265.729 77.7 265.729 77.02C265.729 76.42 265.882 75.9067 266.189 75.48C266.509 75.04 266.955 74.7 267.529 74.46C268.102 74.22 268.769 74.1 269.529 74.1C270.115 74.1 270.669 74.18 271.189 74.34C271.722 74.4867 272.202 74.7267 272.629 75.06C272.762 75.1533 272.849 75.2667 272.889 75.4C272.942 75.52 272.949 75.6467 272.909 75.78C272.882 75.9 272.822 76.0067 272.729 76.1C272.635 76.18 272.522 76.2267 272.389 76.24C272.255 76.2533 272.115 76.2133 271.969 76.12C271.569 75.8533 271.162 75.66 270.749 75.54C270.335 75.4067 269.929 75.34 269.529 75.34C268.782 75.34 268.215 75.4867 267.829 75.78C267.442 76.0733 267.249 76.46 267.249 76.94C267.249 77.3133 267.369 77.62 267.609 77.86C267.849 78.1 268.222 78.2733 268.729 78.38L270.549 78.76C271.415 78.9467 272.062 79.2467 272.489 79.66C272.929 80.06 273.149 80.6067 273.149 81.3C273.149 82.18 272.795 82.88 272.089 83.4C271.382 83.92 270.442 84.18 269.269 84.18ZM278.898 84.18C278.298 84.18 277.691 84.1067 277.078 83.96C276.478 83.8133 275.918 83.56 275.398 83.2C275.264 83.1067 275.171 83 275.118 82.88C275.064 82.7467 275.044 82.62 275.058 82.5C275.084 82.3667 275.138 82.2533 275.218 82.16C275.311 82.0667 275.418 82.0133 275.538 82C275.671 81.9733 275.818 82 275.978 82.08C276.498 82.4 276.998 82.6267 277.478 82.76C277.971 82.88 278.458 82.94 278.938 82.94C279.698 82.94 280.271 82.8 280.658 82.52C281.044 82.24 281.238 81.86 281.238 81.38C281.238 81.0067 281.111 80.7133 280.858 80.5C280.604 80.2733 280.204 80.1 279.658 79.98L277.838 79.58C276.998 79.4067 276.371 79.1067 275.958 78.68C275.558 78.2533 275.358 77.7 275.358 77.02C275.358 76.42 275.511 75.9067 275.818 75.48C276.138 75.04 276.584 74.7 277.158 74.46C277.731 74.22 278.398 74.1 279.158 74.1C279.744 74.1 280.298 74.18 280.818 74.34C281.351 74.4867 281.831 74.7267 282.258 75.06C282.391 75.1533 282.478 75.2667 282.518 75.4C282.571 75.52 282.578 75.6467 282.538 75.78C282.511 75.9 282.451 76.0067 282.358 76.1C282.264 76.18 282.151 76.2267 282.018 76.24C281.884 76.2533 281.744 76.2133 281.598 76.12C281.198 75.8533 280.791 75.66 280.378 75.54C279.964 75.4067 279.558 75.34 279.158 75.34C278.411 75.34 277.844 75.4867 277.458 75.78C277.071 76.0733 276.878 76.46 276.878 76.94C276.878 77.3133 276.998 77.62 277.238 77.86C277.478 78.1 277.851 78.2733 278.358 78.38L280.178 78.76C281.044 78.9467 281.691 79.2467 282.118 79.66C282.558 80.06 282.778 80.6067 282.778 81.3C282.778 82.18 282.424 82.88 281.718 83.4C281.011 83.92 280.071 84.18 278.898 84.18ZM294.703 87.78C293.996 87.78 293.303 87.6933 292.623 87.52C291.956 87.36 291.349 87.1 290.803 86.74C290.643 86.6467 290.536 86.5333 290.483 86.4C290.443 86.2667 290.436 86.1333 290.463 86C290.489 85.88 290.549 85.7667 290.643 85.66C290.736 85.5667 290.843 85.5067 290.963 85.48C291.096 85.4533 291.229 85.4733 291.363 85.54C291.949 85.9 292.509 86.1467 293.043 86.28C293.576 86.4133 294.103 86.48 294.623 86.48C295.569 86.48 296.283 86.2267 296.763 85.72C297.256 85.2133 297.503 84.48 297.503 83.52V81.26H297.703C297.503 82.0333 297.076 82.6467 296.423 83.1C295.783 83.5533 295.029 83.78 294.163 83.78C293.269 83.78 292.496 83.58 291.843 83.18C291.189 82.7667 290.683 82.1933 290.323 81.46C289.976 80.7267 289.803 79.88 289.803 78.92C289.803 78.2 289.903 77.5467 290.103 76.96C290.303 76.36 290.589 75.8533 290.963 75.44C291.349 75.0133 291.809 74.6867 292.343 74.46C292.889 74.22 293.496 74.1 294.163 74.1C295.043 74.1 295.803 74.3267 296.443 74.78C297.083 75.22 297.496 75.82 297.683 76.58L297.483 76.82V74.96C297.483 74.6933 297.549 74.4933 297.683 74.36C297.829 74.2133 298.029 74.14 298.283 74.14C298.549 74.14 298.749 74.2133 298.883 74.36C299.016 74.4933 299.083 74.6933 299.083 74.96V83.3C299.083 84.78 298.709 85.8933 297.963 86.64C297.229 87.4 296.143 87.78 294.703 87.78ZM294.463 82.46C295.089 82.46 295.629 82.32 296.083 82.04C296.536 81.7467 296.883 81.3333 297.123 80.8C297.376 80.2667 297.503 79.64 297.503 78.92C297.503 77.84 297.229 76.9867 296.683 76.36C296.136 75.72 295.396 75.4 294.463 75.4C293.849 75.4 293.316 75.5467 292.863 75.84C292.409 76.12 292.056 76.5267 291.803 77.06C291.563 77.58 291.443 78.2 291.443 78.92C291.443 80 291.716 80.86 292.263 81.5C292.809 82.14 293.543 82.46 294.463 82.46ZM306.502 84.18C305.475 84.18 304.588 83.98 303.842 83.58C303.108 83.1667 302.535 82.5867 302.122 81.84C301.722 81.0933 301.522 80.2 301.522 79.16C301.522 78.1467 301.722 77.2667 302.122 76.52C302.522 75.76 303.068 75.1667 303.762 74.74C304.468 74.3133 305.282 74.1 306.202 74.1C306.855 74.1 307.442 74.2133 307.962 74.44C308.482 74.6533 308.922 74.9667 309.282 75.38C309.655 75.7933 309.935 76.2933 310.122 76.88C310.322 77.4667 310.422 78.1267 310.422 78.86C310.422 79.0733 310.362 79.2333 310.242 79.34C310.122 79.4333 309.948 79.48 309.722 79.48H302.762V78.42H309.342L309.022 78.68C309.022 77.96 308.915 77.3533 308.702 76.86C308.488 76.3533 308.175 75.9667 307.762 75.7C307.362 75.4333 306.855 75.3 306.242 75.3C305.562 75.3 304.982 75.46 304.502 75.78C304.035 76.0867 303.682 76.52 303.442 77.08C303.202 77.6267 303.082 78.2667 303.082 79V79.12C303.082 80.3467 303.375 81.28 303.962 81.92C304.562 82.56 305.408 82.88 306.502 82.88C306.955 82.88 307.402 82.82 307.842 82.7C308.295 82.58 308.735 82.38 309.162 82.1C309.348 81.98 309.515 81.9267 309.662 81.94C309.822 81.94 309.948 81.9867 310.042 82.08C310.135 82.16 310.195 82.2667 310.222 82.4C310.262 82.52 310.248 82.6533 310.182 82.8C310.128 82.9467 310.015 83.0733 309.842 83.18C309.402 83.5 308.882 83.7467 308.282 83.92C307.682 84.0933 307.088 84.18 306.502 84.18ZM313.566 84.14C313.299 84.14 313.099 84.0667 312.966 83.92C312.833 83.7733 312.766 83.5667 312.766 83.3V74.96C312.766 74.6933 312.833 74.4933 312.966 74.36C313.099 74.2133 313.293 74.14 313.546 74.14C313.799 74.14 313.993 74.2133 314.126 74.36C314.273 74.4933 314.346 74.6933 314.346 74.96V76.68L314.126 76.44C314.406 75.6667 314.859 75.0867 315.486 74.7C316.126 74.3 316.859 74.1 317.686 74.1C318.459 74.1 319.099 74.24 319.606 74.52C320.126 74.8 320.513 75.2267 320.766 75.8C321.019 76.36 321.146 77.0733 321.146 77.94V83.3C321.146 83.5667 321.073 83.7733 320.926 83.92C320.793 84.0667 320.599 84.14 320.346 84.14C320.079 84.14 319.873 84.0667 319.726 83.92C319.593 83.7733 319.526 83.5667 319.526 83.3V78.04C319.526 77.1333 319.346 76.4733 318.986 76.06C318.639 75.6333 318.079 75.42 317.306 75.42C316.413 75.42 315.699 75.7 315.166 76.26C314.646 76.8067 314.386 77.54 314.386 78.46V83.3C314.386 83.86 314.113 84.14 313.566 84.14ZM328.513 84.18C327.487 84.18 326.6 83.98 325.853 83.58C325.12 83.1667 324.547 82.5867 324.133 81.84C323.733 81.0933 323.533 80.2 323.533 79.16C323.533 78.1467 323.733 77.2667 324.133 76.52C324.533 75.76 325.08 75.1667 325.773 74.74C326.48 74.3133 327.293 74.1 328.213 74.1C328.867 74.1 329.453 74.2133 329.973 74.44C330.493 74.6533 330.933 74.9667 331.293 75.38C331.667 75.7933 331.947 76.2933 332.133 76.88C332.333 77.4667 332.433 78.1267 332.433 78.86C332.433 79.0733 332.373 79.2333 332.253 79.34C332.133 79.4333 331.96 79.48 331.733 79.48H324.773V78.42H331.353L331.033 78.68C331.033 77.96 330.927 77.3533 330.713 76.86C330.5 76.3533 330.187 75.9667 329.773 75.7C329.373 75.4333 328.867 75.3 328.253 75.3C327.573 75.3 326.993 75.46 326.513 75.78C326.047 76.0867 325.693 76.52 325.453 77.08C325.213 77.6267 325.093 78.2667 325.093 79V79.12C325.093 80.3467 325.387 81.28 325.973 81.92C326.573 82.56 327.42 82.88 328.513 82.88C328.967 82.88 329.413 82.82 329.853 82.7C330.307 82.58 330.747 82.38 331.173 82.1C331.36 81.98 331.527 81.9267 331.673 81.94C331.833 81.94 331.96 81.9867 332.053 82.08C332.147 82.16 332.207 82.2667 332.233 82.4C332.273 82.52 332.26 82.6533 332.193 82.8C332.14 82.9467 332.027 83.0733 331.853 83.18C331.413 83.5 330.893 83.7467 330.293 83.92C329.693 84.0933 329.1 84.18 328.513 84.18ZM335.598 84.14C335.331 84.14 335.124 84.0667 334.978 83.92C334.844 83.7733 334.778 83.5667 334.778 83.3V74.96C334.778 74.6933 334.844 74.4933 334.978 74.36C335.111 74.2133 335.304 74.14 335.558 74.14C335.811 74.14 336.004 74.2133 336.138 74.36C336.284 74.4933 336.358 74.6933 336.358 74.96V76.58H336.158C336.371 75.7933 336.778 75.1867 337.378 74.76C337.978 74.3333 338.718 74.1067 339.598 74.08C339.798 74.0667 339.958 74.1133 340.078 74.22C340.198 74.3133 340.264 74.48 340.278 74.72C340.291 74.9467 340.238 75.1267 340.118 75.26C339.998 75.3933 339.811 75.4733 339.558 75.5L339.238 75.54C338.331 75.62 337.631 75.9133 337.138 76.42C336.658 76.9133 336.418 77.5933 336.418 78.46V83.3C336.418 83.5667 336.344 83.7733 336.198 83.92C336.064 84.0667 335.864 84.14 335.598 84.14ZM344.908 84.18C344.241 84.18 343.641 84.0533 343.108 83.8C342.588 83.5333 342.175 83.1733 341.868 82.72C341.561 82.2667 341.408 81.76 341.408 81.2C341.408 80.48 341.588 79.9133 341.948 79.5C342.321 79.0867 342.928 78.7933 343.768 78.62C344.621 78.4467 345.781 78.36 347.248 78.36H348.148V79.42H347.268C346.188 79.42 345.335 79.4733 344.708 79.58C344.095 79.6733 343.661 79.84 343.408 80.08C343.168 80.32 343.048 80.66 343.048 81.1C343.048 81.6467 343.235 82.0933 343.608 82.44C343.995 82.7867 344.515 82.96 345.168 82.96C345.701 82.96 346.168 82.8333 346.568 82.58C346.981 82.3267 347.301 81.98 347.528 81.54C347.768 81.1 347.888 80.5933 347.888 80.02V77.74C347.888 76.9133 347.721 76.32 347.388 75.96C347.055 75.5867 346.508 75.4 345.748 75.4C345.281 75.4 344.815 75.46 344.348 75.58C343.881 75.7 343.388 75.8933 342.868 76.16C342.681 76.2533 342.521 76.2867 342.388 76.26C342.255 76.22 342.148 76.1467 342.068 76.04C341.988 75.9333 341.941 75.8133 341.928 75.68C341.915 75.5333 341.941 75.3933 342.008 75.26C342.088 75.1267 342.208 75.02 342.368 74.94C342.955 74.6467 343.535 74.4333 344.108 74.3C344.681 74.1667 345.228 74.1 345.748 74.1C346.588 74.1 347.281 74.24 347.828 74.52C348.375 74.7867 348.781 75.2 349.048 75.76C349.315 76.3067 349.448 77.0133 349.448 77.88V83.3C349.448 83.5667 349.381 83.7733 349.248 83.92C349.128 84.0667 348.948 84.14 348.708 84.14C348.455 84.14 348.261 84.0667 348.128 83.92C347.995 83.7733 347.928 83.5667 347.928 83.3V81.74H348.108C348.001 82.2467 347.795 82.68 347.488 83.04C347.195 83.4 346.828 83.68 346.388 83.88C345.948 84.08 345.455 84.18 344.908 84.18ZM356.354 84.18C355.594 84.18 354.954 84.0467 354.434 83.78C353.927 83.5 353.547 83.1 353.294 82.58C353.04 82.0467 352.914 81.4 352.914 80.64V75.54H351.574C351.347 75.54 351.174 75.4867 351.054 75.38C350.934 75.26 350.874 75.1 350.874 74.9C350.874 74.7 350.934 74.5467 351.054 74.44C351.174 74.3333 351.347 74.28 351.574 74.28H352.914V71.98C352.914 71.7133 352.987 71.5133 353.134 71.38C353.28 71.2333 353.48 71.16 353.734 71.16C353.987 71.16 354.18 71.2333 354.314 71.38C354.46 71.5133 354.534 71.7133 354.534 71.98V74.28H357.054C357.28 74.28 357.454 74.3333 357.574 74.44C357.694 74.5467 357.754 74.7 357.754 74.9C357.754 75.1 357.694 75.26 357.574 75.38C357.454 75.4867 357.28 75.54 357.054 75.54H354.534V80.48C354.534 81.24 354.694 81.82 355.014 82.22C355.334 82.6067 355.854 82.8 356.574 82.8C356.827 82.8 357.04 82.7733 357.214 82.72C357.4 82.6667 357.554 82.64 357.674 82.64C357.794 82.6267 357.894 82.6667 357.974 82.76C358.054 82.8533 358.094 83.0133 358.094 83.24C358.094 83.4 358.06 83.5467 357.994 83.68C357.94 83.8133 357.84 83.9067 357.694 83.96C357.534 84.0133 357.32 84.06 357.054 84.1C356.8 84.1533 356.567 84.18 356.354 84.18ZM360.363 84.1C360.096 84.1 359.896 84.0267 359.763 83.88C359.63 83.72 359.563 83.5 359.563 83.22V75.04C359.563 74.76 359.63 74.5467 359.763 74.4C359.896 74.2533 360.096 74.18 360.363 74.18C360.616 74.18 360.816 74.2533 360.963 74.4C361.11 74.5467 361.183 74.76 361.183 75.04V83.22C361.183 83.5 361.11 83.72 360.963 83.88C360.83 84.0267 360.63 84.1 360.363 84.1ZM360.363 71.94C360.03 71.94 359.77 71.8533 359.583 71.68C359.396 71.4933 359.303 71.2467 359.303 70.94C359.303 70.62 359.396 70.38 359.583 70.22C359.77 70.0467 360.03 69.96 360.363 69.96C360.71 69.96 360.97 70.0467 361.143 70.22C361.33 70.38 361.423 70.62 361.423 70.94C361.423 71.2467 361.33 71.4933 361.143 71.68C360.97 71.8533 360.71 71.94 360.363 71.94ZM368.251 84.18C367.305 84.18 366.485 83.9733 365.791 83.56C365.098 83.1467 364.558 82.5667 364.171 81.82C363.798 81.06 363.611 80.1667 363.611 79.14C363.611 78.3667 363.718 77.6733 363.931 77.06C364.145 76.4333 364.458 75.9 364.871 75.46C365.285 75.02 365.771 74.6867 366.331 74.46C366.905 74.22 367.545 74.1 368.251 74.1C369.198 74.1 370.018 74.3067 370.711 74.72C371.405 75.1333 371.938 75.72 372.311 76.48C372.698 77.2267 372.891 78.1133 372.891 79.14C372.891 79.9133 372.785 80.6067 372.571 81.22C372.358 81.8333 372.045 82.3667 371.631 82.82C371.218 83.26 370.725 83.6 370.151 83.84C369.591 84.0667 368.958 84.18 368.251 84.18ZM368.251 82.88C368.851 82.88 369.378 82.7333 369.831 82.44C370.285 82.1467 370.631 81.72 370.871 81.16C371.125 80.6 371.251 79.9267 371.251 79.14C371.251 77.9267 370.978 77 370.431 76.36C369.898 75.72 369.171 75.4 368.251 75.4C367.638 75.4 367.105 75.5467 366.651 75.84C366.211 76.12 365.865 76.54 365.611 77.1C365.371 77.6467 365.251 78.3267 365.251 79.14C365.251 80.34 365.525 81.2667 366.071 81.92C366.618 82.56 367.345 82.88 368.251 82.88ZM376.125 84.14C375.858 84.14 375.658 84.0667 375.525 83.92C375.391 83.7733 375.325 83.5667 375.325 83.3V74.96C375.325 74.6933 375.391 74.4933 375.525 74.36C375.658 74.2133 375.851 74.14 376.105 74.14C376.358 74.14 376.551 74.2133 376.685 74.36C376.831 74.4933 376.905 74.6933 376.905 74.96V76.68L376.685 76.44C376.965 75.6667 377.418 75.0867 378.045 74.7C378.685 74.3 379.418 74.1 380.245 74.1C381.018 74.1 381.658 74.24 382.165 74.52C382.685 74.8 383.071 75.2267 383.325 75.8C383.578 76.36 383.705 77.0733 383.705 77.94V83.3C383.705 83.5667 383.631 83.7733 383.485 83.92C383.351 84.0667 383.158 84.14 382.905 84.14C382.638 84.14 382.431 84.0667 382.285 83.92C382.151 83.7733 382.085 83.5667 382.085 83.3V78.04C382.085 77.1333 381.905 76.4733 381.545 76.06C381.198 75.6333 380.638 75.42 379.865 75.42C378.971 75.42 378.258 75.7 377.725 76.26C377.205 76.8067 376.945 77.54 376.945 78.46V83.3C376.945 83.86 376.671 84.14 376.125 84.14ZM389.972 84.18C389.372 84.18 388.765 84.1067 388.152 83.96C387.552 83.8133 386.992 83.56 386.472 83.2C386.339 83.1067 386.245 83 386.192 82.88C386.139 82.7467 386.119 82.62 386.132 82.5C386.159 82.3667 386.212 82.2533 386.292 82.16C386.385 82.0667 386.492 82.0133 386.612 82C386.745 81.9733 386.892 82 387.052 82.08C387.572 82.4 388.072 82.6267 388.552 82.76C389.045 82.88 389.532 82.94 390.012 82.94C390.772 82.94 391.345 82.8 391.732 82.52C392.119 82.24 392.312 81.86 392.312 81.38C392.312 81.0067 392.185 80.7133 391.932 80.5C391.679 80.2733 391.279 80.1 390.732 79.98L388.912 79.58C388.072 79.4067 387.445 79.1067 387.032 78.68C386.632 78.2533 386.432 77.7 386.432 77.02C386.432 76.42 386.585 75.9067 386.892 75.48C387.212 75.04 387.659 74.7 388.232 74.46C388.805 74.22 389.472 74.1 390.232 74.1C390.819 74.1 391.372 74.18 391.892 74.34C392.425 74.4867 392.905 74.7267 393.332 75.06C393.465 75.1533 393.552 75.2667 393.592 75.4C393.645 75.52 393.652 75.6467 393.612 75.78C393.585 75.9 393.525 76.0067 393.432 76.1C393.339 76.18 393.225 76.2267 393.092 76.24C392.959 76.2533 392.819 76.2133 392.672 76.12C392.272 75.8533 391.865 75.66 391.452 75.54C391.039 75.4067 390.632 75.34 390.232 75.34C389.485 75.34 388.919 75.4867 388.532 75.78C388.145 76.0733 387.952 76.46 387.952 76.94C387.952 77.3133 388.072 77.62 388.312 77.86C388.552 78.1 388.925 78.2733 389.432 78.38L391.252 78.76C392.119 78.9467 392.765 79.2467 393.192 79.66C393.632 80.06 393.852 80.6067 393.852 81.3C393.852 82.18 393.499 82.88 392.792 83.4C392.085 83.92 391.145 84.18 389.972 84.18Z" fill="#EDF1DD" fill-opacity="0.72"/>
</svg>
