<svg width="51" height="40" viewBox="0 0 51 40" fill="none" xmlns="http://www.w3.org/2000/svg">
<g clip-path="url(#clip0_8_135)">
<path d="M33.333 17.988L25.0904 9.1843L16.8473 17.988C12.3611 22.7758 12.3 30.4941 16.6561 35.3658L16.8505 35.5733C19.1258 38.0016 22.1079 39.2164 25.0904 39.2169C28.072 39.2159 31.0545 38.0016 33.3298 35.5733L33.5242 35.3658C37.8808 30.4941 37.8192 22.7758 33.333 17.988Z" fill="#FF6803"/>
<path d="M12.7116 31.1589C12.2649 29.7165 12.0379 28.1907 12.0535 26.6296C12.0903 22.9713 13.4455 19.5322 15.8697 16.945L24.1128 8.14182L24.1132 8.14133L19.8982 3.64335C15.3472 -1.21413 7.96669 -1.21315 3.41478 3.64335C-1.1362 8.50182 -1.13804 16.3776 3.41478 21.235L3.41111 21.2395L12.7116 31.1589Z" fill="#252323"/>
<path d="M46.7663 3.64259C42.2144 -1.21391 34.8339 -1.21489 30.2834 3.64259L26.0679 8.14008L26.0688 8.14106L34.3109 16.9443C36.7351 19.5314 38.0908 22.971 38.1276 26.6293C38.1436 28.1899 37.9166 29.7157 37.4699 31.1582L46.7704 21.2392L46.7668 21.2348C51.3191 16.3773 51.3177 8.50105 46.7663 3.64259Z" fill="#252323"/>
</g>
<defs>
<clipPath id="clip0_8_135">
<rect width="50.1804" height="39.2174" fill="white"/>
</clipPath>
</defs>
</svg>
